<?xml version="1.0" encoding="UTF-8" standalone="no"?>
<svg width="1999px" height="695px" viewBox="0 0 1999 695" version="1.1" xmlns="http://www.w3.org/2000/svg" xmlns:xlink="http://www.w3.org/1999/xlink" xmlns:sketch="http://www.bohemiancoding.com/sketch/ns">
    <!-- Generator: Sketch 3.4 (15588) - http://www.bohemiancoding.com/sketch -->
    <title>Logo</title>
    <desc>Created with Sketch.</desc>
    <defs>
        <path id="path-1" d="M0.272108844,4.41723356 L1998.2449,4.41723356 L1998.2449,698.412698 L0.272108844,698.412698 L0.272108844,4.41723356 Z"></path>
        <path d="M1852.61224,68.9160998 C1722.839,-74.2267574 887.777778,54.5306122 532.662132,132.104308 L524.390023,133.895692 C522.689342,134.195011 521.555556,135.8322 521.84127,137.52381 C522.14966,139.24263 523.759637,140.376417 525.478458,140.086168 L533.69161,138.480726 C827.900227,86.1088435 1439.72789,13.4739229 1571.37868,144.018141 C1611.55102,183.84127 1601.96825,235.156463 1555.41043,295.687075 C1580.51247,311.818594 1598.39002,337.188209 1606.44898,368.943311 C1788.26304,247.981859 1910.4263,132.680272 1852.61224,68.9160998 L1852.61224,68.9160998 Z M1312.23129,506.362812 C1312.14059,506.426304 1312.06349,506.485261 1311.96372,506.539683 C1229.64172,564.843537 1132.10884,626.063492 1027.19728,690.30839 L1023.06122,692.716553 C1021.6644,693.718821 1021.30612,695.655329 1022.30839,697.0839 C1023.29252,698.498866 1025.24263,698.834467 1026.6576,697.845805 L1030.15873,695.995465 C1119.14286,649.560091 1221.33333,594.421769 1324.17234,537.877551 C1324.73016,537.569161 1325.26984,537.260771 1325.82766,536.965986 C1320.1678,527.70068 1315.52381,517.52381 1312.23129,506.362812 L1312.23129,506.362812 Z" id="path-3"></path>
    </defs>
    <g id="Page-1" stroke="none" stroke-width="1" fill="none" fill-rule="evenodd" sketch:type="MSPage">
        <g id="Logo" sketch:type="MSLayerGroup" transform="translate(0.000000, -4.000000)">
            <g id="Boomerang">
                <mask id="mask-2" sketch:name="Clip 2" fill="white">
                    <use xlink:href="#path-1"></use>
                </mask>
                <g id="Clip-2"></g>
                <g id="Fill-1">
                    <use fill="none" sketch:type="MSShapeGroup" mask="url(#mask-2)" xlink:href="#path-3"></use>
                    <use fill="none" xlink:href="#path-3"></use>
                    <use fill="#D03027" fill-rule="evenodd" xlink:href="#path-3"></use>
                </g>
            </g>
            <path d="M1975.78231,355.578231 C1974.43537,354.825397 1972.27211,354.44898 1969.29705,354.44898 L1964.72109,354.44898 L1964.72109,365.446712 L1969.56009,365.446712 C1971.8322,365.446712 1973.53288,365.22449 1974.66667,364.770975 C1976.7619,363.941043 1977.80499,362.358277 1977.80499,360.022676 C1977.80499,357.814059 1977.12925,356.331066 1975.78231,355.578231 L1975.78231,355.578231 Z M1970,350.793651 C1973.77324,350.793651 1976.53515,351.160998 1978.29478,351.886621 C1981.43764,353.197279 1983.01134,355.759637 1983.01134,359.582766 C1983.01134,362.29932 1982.02268,364.290249 1980.04535,365.578231 C1978.9932,366.253968 1977.52834,366.743764 1975.65533,367.043084 C1978.03175,367.419501 1979.76871,368.412698 1980.86621,370.018141 C1981.96825,371.623583 1982.52154,373.192744 1982.52154,374.721088 L1982.52154,376.943311 C1982.52154,377.641723 1982.54422,378.394558 1982.5941,379.197279 C1982.64399,380 1982.73469,380.526077 1982.86168,380.780045 L1983.04762,381.156463 L1978.03175,381.156463 C1978.00907,381.052154 1977.98186,380.952381 1977.95918,380.852608 C1977.93197,380.752834 1977.9093,380.639456 1977.88209,380.517007 L1977.76871,379.54195 L1977.76871,377.138322 C1977.76871,373.632653 1976.81179,371.319728 1974.90249,370.190476 C1973.77324,369.54195 1971.78685,369.21542 1968.94785,369.21542 L1964.72109,369.21542 L1964.72109,381.156463 L1959.36961,381.156463 L1959.36961,350.793651 L1970,350.793651 L1970,350.793651 Z M1953.71429,349.251701 C1949.08844,353.895692 1946.77551,359.510204 1946.77551,366.086168 C1946.77551,372.716553 1949.07483,378.367347 1953.67347,383.038549 C1958.29932,387.709751 1963.91837,390.045351 1970.53061,390.045351 C1977.14286,390.045351 1982.75737,387.709751 1987.38322,383.038549 C1992.00907,378.367347 1994.322,372.716553 1994.322,366.086168 C1994.322,359.510204 1992.00907,353.895692 1987.38322,349.251701 C1982.73469,344.580499 1977.11565,342.244898 1970.53061,342.244898 C1963.96825,342.244898 1958.36281,344.580499 1953.71429,349.251701 L1953.71429,349.251701 Z M1990.13605,385.673469 C1984.73016,391.097506 1978.19501,393.809524 1970.53061,393.809524 C1962.86168,393.809524 1956.34014,391.097506 1950.96145,385.673469 C1945.60544,380.276644 1942.92971,373.732426 1942.92971,366.049887 C1942.92971,358.444444 1945.63265,351.936508 1951.03401,346.539683 C1956.41723,341.165533 1962.91156,338.480726 1970.53061,338.480726 C1978.19501,338.480726 1984.73016,341.165533 1990.13605,346.539683 C1995.54195,351.913832 1998.2449,358.417234 1998.2449,366.049887 C1998.2449,373.709751 1995.54195,380.249433 1990.13605,385.673469 L1990.13605,385.673469 Z" id="Fill-16" fill="#004977" sketch:type="MSShapeGroup"></path>
            <path d="M1910.24036,513.528345 L1916.49433,517.764172 C1900.71202,549.891156 1868.54875,575.759637 1830.81633,575.759637 C1799.94558,575.759637 1774.64853,555.206349 1773.30159,516.621315 C1770.80272,447.469388 1835.5873,383.219955 1888.65306,383.219955 C1911.41043,383.219955 1932.50794,393.174603 1933.45578,417.678005 C1935.41497,472.666667 1858.18594,489.478458 1807.31519,490.621315 C1805.65986,496.371882 1805.04762,502.136054 1805.33787,510.93424 C1806.17234,533.732426 1819.99093,552.911565 1848.5034,552.911565 C1873.14739,552.911565 1897.78685,533.088435 1910.24036,513.528345 L1910.24036,513.528345 Z M1903.31519,414.222222 C1902.86168,401.210884 1896.34467,392.46712 1882.90703,392.46712 C1850.55782,392.46712 1816.16327,455.836735 1810.22222,481.38322 C1863.27891,481.38322 1904.60771,449.773243 1903.31519,414.222222 L1903.31519,414.222222 Z" id="Fill-14" fill="#004977" sketch:type="MSShapeGroup"></path>
            <path d="M1593.82766,412.399093 C1599.31066,411.68254 1608.13152,410.707483 1611.94104,410.707483 C1617.75057,410.707483 1623.18821,411.804989 1623.46485,417.55102 C1623.56916,420.952381 1617.42404,445.455782 1616.12245,451.142857 L1603.81859,505.378685 C1598.84807,527.587302 1593.46485,550.829932 1588.68934,569.183673 L1620.30385,569.183673 L1638.06349,483.260771 C1692.26304,426.78458 1713.12925,408.385488 1725.9229,408.385488 C1731.65986,408.385488 1735.63719,411.405896 1735.91383,418.29932 C1736.23129,428.235828 1730.0771,450.807256 1727.94104,457.274376 L1709.80952,519.941043 C1705.68254,534.027211 1702.64399,546.725624 1702.92517,555.804989 C1703.47392,569.564626 1711.79138,575.678005 1724.14966,575.678005 C1747.24263,575.678005 1764,551.609977 1778.66213,527.959184 L1774.37188,520.190476 C1768.43991,529.709751 1754.74376,550.45805 1743.93651,550.45805 C1740.51701,550.45805 1737.30159,548.190476 1737.18821,542.45805 C1736.86168,535.124717 1739.95918,524.195011 1742.08617,516.902494 L1762.22222,443.501134 C1767.61451,423.274376 1770.20862,410.253968 1770.06803,403.337868 C1769.5737,389.614512 1761.56463,383.192744 1749.30612,383.192744 C1728.52608,383.192744 1700.88889,398.394558 1642.43537,465.678005 L1641.59637,465.678005 L1648.95692,432.843537 C1652.95238,414.888889 1656.87528,396.154195 1660.66667,383.192744 C1640.45351,390.503401 1611.46032,398.653061 1593.55102,402.104308 L1593.82766,412.399093" id="Fill-15" fill="#004977" sketch:type="MSShapeGroup"></path>
            <path d="M1322.19501,466.086168 C1319.21088,380.136054 1386.55782,292.235828 1484.37188,292.235828 C1549.79592,292.235828 1592.61224,335.8322 1594.9932,402.594104 C1598.13152,493.24263 1535.23356,576.45805 1432.82993,576.45805 C1367.39683,576.45805 1324.5805,532.952381 1322.19501,466.086168 L1322.19501,466.086168 Z M1364.7483,468.789116 C1366.43084,519.142857 1398.28118,560.385488 1439.85034,560.385488 C1520.38549,560.385488 1554.67574,461.496599 1552.29932,395.419501 C1550.58957,344.920635 1517.89116,303.759637 1476.39002,303.759637 C1407.09751,303.759637 1362.38095,402.244898 1364.7483,468.789116 L1364.7483,468.789116 Z" id="Fill-4" fill="#004977" sketch:type="MSShapeGroup"></path>
            <path d="M1191.69615,517.931973 L1232.10431,292.839002 L1310.34467,295.034014 L1272.02721,517.814059 L1191.69615,517.931973 Z" id="Fill-12" fill="#004977" sketch:type="MSShapeGroup"></path>
            <path d="M1191.95918,390.802721 C1191.62358,398.730159 1190.23129,405.70068 1188.06349,417.678005 L1173.77778,498.517007 C1172.53515,505.637188 1175.1746,511.23356 1181.80045,515.210884 L1181.31519,518.018141 L1098.97052,518.172336 L1098.3356,497.591837 C1086.31293,504.884354 1071.75057,510.952381 1058.73923,514.485261 C1045.63265,517.931973 1035.07483,519.337868 1019.12925,519.337868 C992.548753,519.337868 977.419501,516.671202 966.870748,507.39229 C956.131519,497.84127 950.943311,491.578231 951.519274,478.521542 C951.818594,470.947846 955.768707,461.21542 961.446712,454.562358 C967.151927,447.609977 974.929705,443.197279 983.433107,439.229025 C991.918367,435.219955 1001.96372,432.258503 1016.34921,429.836735 C1030.99773,427.578231 1051.33787,425.115646 1078.49433,422.852608 C1092.64853,421.673469 1101.34694,418.44898 1105.41043,416.879819 C1111.161,414.666667 1113.4195,412.176871 1114.26757,407.537415 C1115.73243,399.396825 1113.13379,394.539683 1102.18594,392.326531 C1072.36281,386.435374 1016.88889,396.099773 988.226757,403.229025 L1003.72336,361.229025 C1041.68254,355.68254 1076.95238,352.14059 1114.29478,352.14059 C1173.53741,352.14059 1192.43991,369.129252 1191.95918,390.802721 L1191.95918,390.802721 Z M1106.95238,443.764172 C1103.41043,444.979592 1098.82993,446.272109 1093.26984,447.564626 C1087.7415,448.875283 1077.51927,450.517007 1062.63039,452.952381 C1052.48526,454.562358 1045.28798,456.689342 1041.38776,459.596372 C1037.60544,462.367347 1035.35601,465.804989 1034.54875,469.968254 C1033.72789,474.421769 1035.35601,478.018141 1039.05669,480.702948 C1043.03401,483.428571 1049.63719,484.76644 1058.89796,484.76644 C1065.77324,484.76644 1072.5034,483.741497 1079.12925,481.668934 C1085.8458,479.419501 1091.43311,476.539683 1095.80045,472.843537 C1098.82993,470.108844 1101.17007,466.548753 1102.81633,462.367347 C1103.82766,459.655329 1105.19728,453.446712 1106.95238,443.764172 L1106.95238,443.764172 Z" id="Fill-7" fill="#004772" sketch:type="MSShapeGroup"></path>
            <path d="M870.31746,355.664399 L875.986395,322.811791 L958.471655,304.857143 L949.69161,355.664399 L990.095238,355.664399 L982.421769,388.163265 L943.238095,388.072562 L919.428571,517.814059 C919.428571,517.814059 840,517.292517 839.723356,517.814059 L863.428571,388.376417 L833.446712,388.376417 L839.528345,355.664399 L870.31746,355.664399" id="Fill-11" fill="#004977" sketch:type="MSShapeGroup"></path>
            <path d="M752.353741,319.23356 C754.716553,305.972789 775.646259,295.210884 799.034014,295.210884 C822.462585,295.210884 839.555556,305.972789 837.287982,319.23356 C834.816327,332.494331 813.931973,343.265306 790.485261,343.265306 C766.984127,343.265306 749.977324,332.494331 752.353741,319.23356 L752.353741,319.23356 Z M719.39229,517.931973 L747.986395,356.603175 L826.852608,356.603175 L798.272109,517.931973 L719.39229,517.931973 L719.39229,517.931973 Z" id="Fill-6" fill="#004977" sketch:type="MSShapeGroup"></path>
            <path d="M471.473923,573.632653 L509.863946,357.39229 L579.120181,357.39229 L573.755102,385.002268 C579.768707,376.752834 589.369615,369.995465 602.621315,364.47619 C615.986395,359.002268 631.020408,354.956916 647.360544,354.956916 C665.433107,354.956916 676.585034,355.922902 690.108844,362.938776 C703.564626,369.995465 712.93424,380.208617 718.054422,393.55102 C723.247166,406.666667 724.326531,421.424036 721.519274,437.487528 C716.834467,464.131519 703.8322,485.147392 682.535147,500.589569 C661.38322,516.018141 642.376417,520.072562 615.201814,520.181406 C605.578231,520.181406 597.537415,519.170068 590.848073,517.55102 C584.321995,515.85034 579.120181,513.777778 575.147392,511.23356 C571.356009,508.693878 567.333333,505.156463 562.15873,499.514739 L549.260771,573.632653 L471.473923,573.632653 L471.473923,573.632653 Z M615.07483,394.408163 C604.748299,394.408163 595.38322,397.53288 587.06576,403.804989 C578.839002,410.086168 573.596372,419.229025 571.469388,431.424036 C568.988662,445.510204 570.439909,455.619048 576.022676,461.868481 C581.664399,468.063492 589.759637,471.188209 600.408163,471.188209 C607.573696,471.188209 615.015873,469.904762 620.480726,467.192744 C627.229025,463.623583 631.886621,459.85941 635.918367,453.927438 C640.276644,447.673469 643.120181,440.716553 644.589569,432.630385 C646.848073,419.891156 644.93424,410.353741 639.024943,404.045351 C633.287982,397.587302 625.369615,394.408163 615.07483,394.408163 L615.07483,394.408163 Z" id="Fill-13" fill="#004977" sketch:type="MSShapeGroup"></path>
            <path d="M480.634921,390.503401 C480.281179,398.394558 478.92517,405.310658 476.807256,417.37415 L462.412698,498.136054 C461.174603,505.292517 463.84127,510.93424 470.498866,514.780045 L470.058957,517.931973 L387.68254,517.814059 L386.938776,497.292517 C374.943311,504.521542 360.471655,510.61678 347.369615,514.204082 C334.321995,517.55102 323.755102,519.029478 307.900227,519.029478 C281.283447,519.029478 266.036281,516.276644 255.53288,507.052154 C244.839002,497.53288 239.668934,491.22449 240.181406,478.14059 C240.589569,470.612245 244.485261,460.956916 250.136054,454.190476 C255.84127,447.319728 263.600907,442.816327 272.058957,438.875283 C280.562358,434.816327 290.557823,431.877551 305.111111,429.591837 C319.687075,427.21542 339.972789,424.861678 367.147392,422.594104 C381.428571,421.396825 390.126984,418.095238 394.217687,416.471655 C399.895692,414.267574 402.117914,411.8322 402.961451,407.206349 C404.47619,398.897959 401.818594,394.1678 390.807256,391.981859 C361.124717,386.145125 305.514739,395.764172 276.834467,402.929705 L292.426304,360.897959 C330.231293,355.387755 365.668934,351.854875 402.970522,351.854875 C462.244898,351.854875 481.229025,368.76644 480.634921,390.503401 L480.634921,390.503401 Z M395.600907,443.38322 C392.099773,444.684807 387.591837,445.995465 381.995465,447.174603 C376.421769,448.435374 366.208617,450.258503 351.39229,452.580499 C341.197279,454.190476 334.117914,456.326531 330.077098,459.21542 C326.217687,462.081633 323.950113,465.473923 323.301587,469.637188 C322.498866,474.068027 323.950113,477.609977 327.795918,480.390023 C331.70068,483.111111 338.253968,484.521542 347.510204,484.521542 C354.439909,484.521542 361.24263,483.396825 367.823129,481.297052 C374.480726,479.115646 380.090703,476.15873 384.421769,472.489796 C387.591837,469.746032 389.85941,466.244898 391.560091,462.081633 C392.535147,459.328798 393.941043,453.129252 395.600907,443.38322 L395.600907,443.38322 Z" id="Fill-5" fill="#004977" sketch:type="MSShapeGroup"></path>
            <path d="M229.401361,459.950113 C203.723356,465.034014 189.283447,466.997732 163.900227,466.997732 C126.217687,466.997732 96.2902494,448.281179 97.9092971,413.99093 C99.0612245,391.156463 126.131519,342.952381 194.875283,342.952381 C216.503401,342.952381 233.424036,346.789116 256.176871,359.746032 L266.163265,303.714286 C235.229025,292.022676 214.743764,290.267574 188.185941,290.553288 C98.1043084,291.514739 11.5192744,332.494331 0.802721088,415.791383 C-10.1179138,500.444444 93.2698413,521.723356 139.170068,521.528345 C165.668934,521.437642 193.219955,520.367347 218.943311,517.70068 L229.401361,459.950113" id="Fill-9" fill="#004772" sketch:type="MSShapeGroup"></path>
        </g>
    </g>
</svg>
