<?xml version="1.0" encoding="utf-8"?>
<!-- Generator: Adobe Illustrator 17.0.0, SVG Export Plug-In . SVG Version: 6.00 Build 0)  -->
<!DOCTYPE svg PUBLIC "-//W3C//DTD SVG 1.1//EN" "http://www.w3.org/Graphics/SVG/1.1/DTD/svg11.dtd">
<svg version="1.1" id="Layer_1" xmlns="http://www.w3.org/2000/svg" xmlns:xlink="http://www.w3.org/1999/xlink" x="0px" y="0px"
  width="960px" height="480px" viewBox="0 0 960 480" enable-background="new 0 0 960 480" xml:space="preserve">
<image display="none" overflow="visible" enable-background="new    " width="4000" height="2000" xlink:href="6FCBE0996635B540.png"  transform="matrix(0.24 0 0 0.24 0 0)">
</image>
<g>
  <path fill="#FFFFFF" d="M189.097,28.042h2.824c6.902,1.806,10.355,5.257,10.355,10.355v53.189h64.016
    c5.884,0,10.747,6.434,14.592,19.299c7.531,17.26,11.297,26.674,11.297,28.242v65.898c-1.727,6.904-5.178,10.355-10.355,10.355
    h-2.824c-6.904-1.804-10.355-5.255-10.355-10.355v-60.721l-11.297-28.713h-55.072v89.434c-1.806,6.904-5.257,10.355-10.355,10.355
    h-2.824c-6.904-1.725-10.355-5.178-10.355-10.355V38.398C180.466,31.496,183.919,28.042,189.097,28.042z"/>
  <path fill="#FFFFFF" d="M362.315,76.054c2.354,0,10.982,5.021,25.889,15.062c18.828,11.532,28.242,18.122,28.242,19.77l1.412,3.766
    v90.375c-1.727,6.904-5.178,10.355-10.355,10.355h-2.824c-6.354,0-9.964-4.707-10.826-14.121v-4.236h-0.471
    c-18.516,12.238-28.713,18.357-30.596,18.357h-3.295c-2.354,0-10.984-5.02-25.889-15.062
    c-18.828-11.532-28.242-18.122-28.242-19.77c-0.941-1.647-1.412-3.216-1.412-4.707v-3.295c0-4.157,6.275-9.649,18.828-16.475
    l61.191-39.068v-0.471l-23.535-14.121c-27.065,17.574-41.345,26.359-42.834,26.359h-2.354c-5.257,0-9.022-3.137-11.297-9.414
    v-3.766c0-5.099,6.275-10.903,18.828-17.416c22.123-14.748,34.203-22.123,36.244-22.123h3.296V76.054z M337.839,174.431v0.471
    l23.535,14.121l32.479-21.182v-28.713h-0.471L337.839,174.431z"/>
  <path fill="#FFFFFF" d="M439.981,109.945h77.666c6.902,1.727,10.355,5.178,10.355,10.355v2.824c0,6.513-4.865,10.12-14.592,10.826
    h-59.779v57.426h58.838c8.002,0,13.021,2.668,15.062,8.002l0.471,2.824v2.824c-1.727,6.904-5.178,10.355-10.355,10.355h-77.666
    c-6.904-1.725-10.355-5.178-10.355-10.355V120.3C431.351,113.398,434.804,109.945,439.981,109.945z"/>
  <path fill="#FFFFFF" d="M550.126,28.042h2.824c6.902,1.806,10.355,5.257,10.355,10.355V140.54l74.842-83.314
    c2.195-1.568,4.236-2.354,6.119-2.354h2.354c5.648,0,9.256,3.766,10.826,11.297c0,4.63-3.453,10.12-10.355,16.475l-32.479,36.715
    c25.495,28.636,39.46,44.64,41.893,48.012l0.941,5.648v32.008c-1.727,6.904-5.178,10.355-10.355,10.355h-2.824
    c-5.336,0-8.787-3.607-10.355-10.826l-0.471-16.475v-11.297l-34.832-39.068c-3.53,3.218-15.298,16.397-35.303,39.539v27.771
    c-1.806,6.904-5.257,10.355-10.355,10.355h-2.824c-6.904-1.725-10.355-5.178-10.355-10.355V38.398
    C541.495,31.496,544.948,28.042,550.126,28.042z"/>
</g>
<g>
  <path fill="#FFFFFF" d="M97.192,244.977c2.532,0,12.336,5.72,29.414,17.158c22.141,13.646,34.562,21.815,37.258,24.512
    c1.633,2.288,2.451,4.412,2.451,6.373v3.432c-2.371,6.863-5.965,10.295-10.785,10.295h-1.961c-2.861,0-11.358-4.737-25.492-14.217
    l-32.355-20.59L60.425,294v0.49l102.459,64.711c2.287,2.941,3.432,5.558,3.432,7.844v3.432c0,4.494-7.191,10.54-21.57,18.139
    C115.658,407.9,99.97,417.54,97.684,417.54h-3.432c-2.451,0-12.256-5.718-29.414-17.158
    c-22.143-13.645-34.562-21.815-37.258-24.512c-1.635-2.286-2.451-4.412-2.451-6.373v-3.432c2.369-6.863,5.963-10.295,10.785-10.295
    h1.961c2.859,0,11.356,4.739,25.492,14.217l32.355,20.59l35.297-22.061v-0.49C76.52,334.12,42.041,312.221,27.58,302.335
    l-2.451-5.883v-3.432c0-5.228,6.045-10.948,18.139-17.158c31.783-20.59,48.451-30.885,50.004-30.885L97.192,244.977L97.192,244.977
    z"/>
  <path fill="#FFFFFF" d="M189.356,222.426h2.941c7.189,1.88,10.785,5.475,10.785,10.785v55.396h66.672
    c6.128,0,11.193,6.7,15.197,20.1c7.844,17.976,11.766,27.78,11.766,29.414v68.633c-1.798,7.19-5.393,10.785-10.785,10.785h-2.941
    c-7.191-1.879-10.785-5.473-10.785-10.785v-63.24L260.44,313.61h-57.357v93.145c-1.88,7.19-5.475,10.785-10.785,10.785h-2.941
    c-7.191-1.796-10.785-5.393-10.785-10.785V233.211C180.368,226.022,183.964,222.426,189.356,222.426z"/>
  <path fill="#FFFFFF" d="M369.763,272.43c2.451,0,11.438,5.229,26.963,15.688c19.609,12.011,29.414,18.874,29.414,20.59
    c0.98,1.636,1.471,3.269,1.471,4.902v3.432c0,4.332-6.538,10.05-19.609,17.158l-63.73,40.689v0.49l24.512,14.707
    c28.188-18.302,43.058-27.453,44.611-27.453h2.451c5.473,0,9.395,3.269,11.766,9.805v3.922c0,5.312-6.538,11.357-19.609,18.139
    c-23.041,15.362-35.625,23.041-37.748,23.041h-3.432c-2.451,0-11.44-5.228-26.963-15.688
    c-19.609-12.011-29.414-18.874-29.414-20.59l-1.471-3.922v-63.73c0-5.311,6.536-11.355,19.609-18.139
    c23.041-15.36,35.623-23.041,37.748-23.041H369.763z M333.976,321.943v29.904h0.49l57.848-36.768v-0.49l-24.512-14.707
    C345.659,313.854,334.383,321.208,333.976,321.943z"/>
  <path fill="#FFFFFF" d="M499.675,275.248h2.941c3.922,0,9.805,5.067,17.648,15.197c11.766,11.931,17.648,19.609,17.648,23.041
    v2.941c-1.798,7.191-5.393,10.785-10.785,10.785h-2.941c-3.922,0-9.805-5.064-17.648-15.197l-5.393-5.393
    c-24.187,26.229-36.277,39.955-36.277,41.18v9.314h24.512c8.252,0,13.316,2.451,15.197,7.354l1.471,5.393
    c-1.798,8.172-5.558,12.256-11.275,12.256h-29.904v71.942c0,8.334-2.779,13.562-8.334,15.688l-2.941,0.49h-2.941
    c-7.191-1.798-10.785-5.393-10.785-10.785V340.939c0-3.267,5.393-10.457,16.178-21.57c21.243-24.429,34.642-38.973,40.199-43.631
    L499.675,275.248z"/>
  <path fill="#FFFFFF" d="M590.735,275.248h2.941c3.922,0,9.805,5.067,17.648,15.197c11.766,11.931,17.648,19.609,17.648,23.041
    v2.941c-1.798,7.191-5.393,10.785-10.785,10.785h-2.941c-3.922,0-9.805-5.064-17.648-15.197l-5.393-5.393
    c-24.187,26.229-36.277,39.955-36.277,41.18v9.314h24.512c8.252,0,13.316,2.451,15.197,7.354l1.471,5.393
    c-1.798,8.172-5.558,12.256-11.275,12.256h-29.904v71.942c0,8.334-2.778,13.562-8.334,15.688l-2.941,0.49h-2.941
    c-7.19-1.798-10.785-5.393-10.785-10.785V340.939c0-3.267,5.393-10.457,16.178-21.57c21.243-24.429,34.642-38.973,40.199-43.631
    L590.735,275.248z"/>
  <path fill="#FFFFFF" d="M644.294,222.426h2.941c7.188,1.798,10.785,5.393,10.785,10.785v15.197c0,5.72-4.087,9.479-12.256,11.275
    c-8.171-1.796-12.256-5.555-12.256-11.275v-15.197C635.305,226.022,638.901,222.426,644.294,222.426z M644.784,272.43h1.961
    c7.517,1.961,11.275,5.393,11.275,10.295v124.029c-1.798,7.19-5.393,10.785-10.785,10.785h-2.941
    c-7.19-1.796-10.785-5.393-10.785-10.785V282.725C633.509,277.822,637.266,274.391,644.784,272.43z"/>
  <path fill="#FFFFFF" d="M723.589,272.43c2.451,0,11.438,5.229,26.963,15.688c19.609,12.011,29.414,18.874,29.414,20.59
    c0.98,1.636,1.471,3.269,1.471,4.902v3.432c0,4.332-6.538,10.05-19.609,17.158l-63.73,40.689v0.49l24.512,14.707
    c28.188-18.302,43.059-27.453,44.611-27.453h2.451c5.473,0,9.395,3.269,11.766,9.805v3.922c0,5.312-6.538,11.357-19.609,18.139
    c-23.041,15.362-35.624,23.041-37.748,23.041h-3.432c-2.451,0-11.44-5.228-26.963-15.688
    c-19.609-12.011-29.414-18.874-29.414-20.59l-1.471-3.922v-63.73c0-5.311,6.536-11.355,19.609-18.139
    c23.041-15.36,35.622-23.041,37.748-23.041H723.589z M687.802,321.943v29.904h0.49l57.848-36.768v-0.49l-24.512-14.707
    C699.485,313.854,688.21,321.208,687.802,321.943z"/>
  <path fill="#FFFFFF" d="M804.478,222.426h2.941c7.188,1.798,10.785,5.393,10.785,10.785v173.543
    c-1.798,7.19-5.393,10.785-10.785,10.785h-2.941c-7.19-1.796-10.785-5.393-10.785-10.785V233.211
    C795.488,226.022,799.085,222.426,804.478,222.426z"/>
  <path fill="#FFFFFF" d="M911.717,222.426h2.941c7.188,1.798,10.785,5.393,10.785,10.785v173.543
    c-1.798,7.19-5.393,10.785-10.785,10.785H833.77c-7.19-1.796-10.785-5.393-10.785-10.785v-88.242
    c0-5.393,3.757-8.987,11.275-10.785h66.182v-70.594C901.34,227.328,905.099,222.426,911.717,222.426z M847.986,332.729v60.299
    h52.455v-60.299H847.986z"/>
</g>
</svg>
