<svg id="Layer_1" data-name="Layer 1" xmlns="http://www.w3.org/2000/svg" viewBox="0 0 342.2 144.2"><defs><style>.cls-1{fill:#353535;}.cls-2{fill:#c53c02;}.cls-3{fill:#751b00;}.cls-4{fill:#265a8f;}.cls-5{fill:#162f51;}.cls-6{fill:#fdee00;}.cls-7{fill:#ecc700;}</style></defs><title>mlh_colour</title><g id="Layer_1-2" data-name="Layer 1"><path class="cls-1" d="M233.2,324.2a8.79,8.79,0,0,1,1,.6,2.07,2.07,0,0,1,.6,1,5,5,0,0,1,.2,1.2v14.6c0,0.1,0,.3-0.1.3a0.37,0.37,0,0,1-.3.1H231a0.35,0.35,0,0,1-.4-0.4V328.4h-2.9v13.2c0,0.1,0,.3-0.1.3a0.37,0.37,0,0,1-.3.1H224c-0.1,0-.3,0-0.3-0.1a0.37,0.37,0,0,1-.1-0.3V328.4h-2.9v13.2a0.47,0.47,0,0,1-.5.5h-3.6a0.47,0.47,0,0,1-.5-0.5V324.5a0.47,0.47,0,0,1,.5-0.5h15.6A1.23,1.23,0,0,1,233.2,324.2Z" transform="translate(-215.9 -197.9)"/><path class="cls-1" d="M251.3,323.9a5,5,0,0,1,1.2.2,8.79,8.79,0,0,1,1,.6,2.07,2.07,0,0,1,.6,1,5,5,0,0,1,.2,1.2v14.6c0,0.1,0,.3-0.1.3a0.37,0.37,0,0,1-.3.1h-3.6c-0.1,0-.3,0-0.3-0.1a0.37,0.37,0,0,1-.1-0.3v-4.6c0-.1,0-0.3-0.1-0.3a0.37,0.37,0,0,0-.3-0.1h-5.1c-0.1,0-.3,0-0.3.1a0.37,0.37,0,0,0-.1.3v4.6a0.47,0.47,0,0,1-.5.5h-3.6a0.47,0.47,0,0,1-.5-0.5V326.9a5,5,0,0,1,.2-1.2,8.79,8.79,0,0,1,.6-1,2.08,2.08,0,0,1,1-.6,2.54,2.54,0,0,1,1.2-.2h8.9Zm-1.6,8.6V328h-6.1v4.5h6.1Z" transform="translate(-215.9 -197.9)"/><path class="cls-1" d="M270.6,324.1a0.37,0.37,0,0,1,.1.3V339a5,5,0,0,1-.2,1.2,8.79,8.79,0,0,1-.6,1,2.08,2.08,0,0,1-1,.6,2.54,2.54,0,0,1-1.2.2h-7.8a5,5,0,0,1-1.2-.2,8.79,8.79,0,0,1-1-.6,2.08,2.08,0,0,1-.6-1,2.54,2.54,0,0,1-.2-1.2v-5.5a0.47,0.47,0,0,1,.5-0.5H261a0.47,0.47,0,0,1,.5.5v3.7a0.35,0.35,0,0,0,.4.4h3.7c0.1,0,.3,0,0.3-0.1a0.37,0.37,0,0,0,.1-0.3V324.5c0-.1,0-0.3.1-0.3a0.37,0.37,0,0,1,.3-0.1H270A0.44,0.44,0,0,1,270.6,324.1Z" transform="translate(-215.9 -197.9)"/><path class="cls-1" d="M286.9,323.9a5,5,0,0,1,1.2.2,8.79,8.79,0,0,1,1,.6,2.08,2.08,0,0,1,.6,1,5,5,0,0,1,.2,1.2v12a5,5,0,0,1-.2,1.2,8.79,8.79,0,0,1-.6,1,2.08,2.08,0,0,1-1,.6,2.54,2.54,0,0,1-1.2.2h-9.1a5,5,0,0,1-1.2-.2,8.79,8.79,0,0,1-1-.6,2.08,2.08,0,0,1-.6-1,2.54,2.54,0,0,1-.2-1.2v-12a5,5,0,0,1,.2-1.2,3.33,3.33,0,0,1,.6-1,2.08,2.08,0,0,1,1-.6,2.54,2.54,0,0,1,1.2-.2h9.1Zm-1.6,4.4h-6.1v9.3h6.1v-9.3Z" transform="translate(-215.9 -197.9)"/><path class="cls-1" d="M309.7,341.6a0.19,0.19,0,0,1,0,.3,0.28,0.28,0,0,1-.3.1h-4.1a0.6,0.6,0,0,1-.4-0.1l-0.3-.3-2.7-4.9c0-.1-0.1-0.1-0.2-0.1h-3.1c-0.1,0-.1,0-0.1.1v4.8a0.47,0.47,0,0,1-.5.5h-3.6a0.47,0.47,0,0,1-.5-0.5V324.4a0.47,0.47,0,0,1,.5-0.5h11.7a5,5,0,0,1,1.2.2,8.79,8.79,0,0,1,1,.6,2.08,2.08,0,0,1,.6,1,2.54,2.54,0,0,1,.2,1.2v6.8a3,3,0,0,1-.6,1.8,3.27,3.27,0,0,1-1.5,1.1h-0.1c-0.1,0-.1.1-0.1,0.2v0.1Zm-5.1-13.5h-6.2v4.4h6.2v-4.4Z" transform="translate(-215.9 -197.9)"/><path class="cls-1" d="M334,337.6a0.35,0.35,0,0,1,.4.4v3.4c0,0.1,0,.3-0.1.3a0.37,0.37,0,0,1-.3.1H322.9a0.47,0.47,0,0,1-.5-0.5V324.2a0.47,0.47,0,0,1,.5-0.5h3.6a0.47,0.47,0,0,1,.5.5v12.7a0.35,0.35,0,0,0,.4.4H334v0.3Z" transform="translate(-215.9 -197.9)"/><path class="cls-1" d="M350.7,324.1a0.37,0.37,0,0,1,.1.3v3.3a0.35,0.35,0,0,1-.4.4h-8.6c-0.1,0-.1,0-0.1.1V331c0,0.1,0,.1.1,0.1h7.4a0.35,0.35,0,0,1,.4.4v2.6c0,0.1,0,.3-0.1.3a0.37,0.37,0,0,1-.3.1h-7.4c-0.1,0-.1,0-0.1.1v1.3h0v1.5c0,0.1,0,.1.1,0.1h8.6c0.1,0,.3,0,0.3.1a0.37,0.37,0,0,1,.1.3v3.2c0,0.1,0,.3-0.1.3a0.37,0.37,0,0,1-.3.1H337.6a0.47,0.47,0,0,1-.5-0.5V323.9c0-.1,0-0.3.1-0.3a0.37,0.37,0,0,1,.3-0.1h12.8A1.89,1.89,0,0,0,350.7,324.1Z" transform="translate(-215.9 -197.9)"/><path class="cls-1" d="M367.1,323.9a5,5,0,0,1,1.2.2,8.79,8.79,0,0,1,1,.6,2.08,2.08,0,0,1,.6,1,5,5,0,0,1,.2,1.2v14.6c0,0.1,0,.3-0.1.3a0.37,0.37,0,0,1-.3.1H366c-0.1,0-.3,0-0.3-0.1a0.37,0.37,0,0,1-.1-0.3v-4.6c0-.1,0-0.3-0.1-0.3a0.37,0.37,0,0,0-.3-0.1H360c-0.1,0-.3,0-0.3.1a0.37,0.37,0,0,0-.1.3v4.6a0.47,0.47,0,0,1-.5.5h-3.6a0.47,0.47,0,0,1-.5-0.5V326.9a5,5,0,0,1,.2-1.2,8.79,8.79,0,0,1,.6-1,2.08,2.08,0,0,1,1-.6,2.54,2.54,0,0,1,1.2-.2h9.1Zm-1.6,8.6V328h-6.1v4.5h6.1Z" transform="translate(-215.9 -197.9)"/><path class="cls-1" d="M389.2,332.3a0.37,0.37,0,0,1,.1.3V339a5,5,0,0,1-.2,1.2,8.79,8.79,0,0,1-.6,1,2.08,2.08,0,0,1-1,.6,2.54,2.54,0,0,1-1.2.2h-9.1a5,5,0,0,1-1.2-.2,8.79,8.79,0,0,1-1-.6,2.08,2.08,0,0,1-.6-1,2.54,2.54,0,0,1-.2-1.2V327a5,5,0,0,1,.2-1.2,3.33,3.33,0,0,1,.6-1,2.08,2.08,0,0,1,1-.6,2.54,2.54,0,0,1,1.2-.2h10.7c0.1,0,.3,0,0.3.1a0.37,0.37,0,0,1,.1.3v3.4c0,0.1,0,.3-0.1.3a0.37,0.37,0,0,1-.3.1h-8.6c-0.1,0-.3,0-0.3.1a0.37,0.37,0,0,0-.1.3V337a0.35,0.35,0,0,0,.4.4h5.1a0.35,0.35,0,0,0,.4-0.4v-4.5c0-.1,0-0.3.1-0.3a0.37,0.37,0,0,1,.3-0.1h3.6A0.76,0.76,0,0,1,389.2,332.3Z" transform="translate(-215.9 -197.9)"/><path class="cls-1" d="M408.2,324.1a0.37,0.37,0,0,1,.1.3V339a5,5,0,0,1-.2,1.2,8.79,8.79,0,0,1-.6,1,2.08,2.08,0,0,1-1,.6,2.54,2.54,0,0,1-1.2.2h-9.1a5,5,0,0,1-1.2-.2,8.79,8.79,0,0,1-1-.6,2.08,2.08,0,0,1-.6-1,2.54,2.54,0,0,1-.2-1.2V324.4a0.47,0.47,0,0,1,.5-0.5h3.6a0.47,0.47,0,0,1,.5.5v12.7a0.35,0.35,0,0,0,.4.4h5.1a0.35,0.35,0,0,0,.4-0.4V324.4c0-.1,0-0.3.1-0.3a0.37,0.37,0,0,1,.3-0.1h3.6A0.4,0.4,0,0,1,408.2,324.1Z" transform="translate(-215.9 -197.9)"/><path class="cls-1" d="M426.1,324.1a0.37,0.37,0,0,1,.1.3v3.3a0.35,0.35,0,0,1-.4.4h-8.6c-0.1,0-.1,0-0.1.1V331c0,0.1,0,.1.1,0.1h7.4a0.35,0.35,0,0,1,.4.4v2.6c0,0.1,0,.3-0.1.3a0.37,0.37,0,0,1-.3.1h-7.4c-0.1,0-.1,0-0.1.1v1.3h0v1.5c0,0.1,0,.1.1,0.1h8.6c0.1,0,.3,0,0.3.1a0.37,0.37,0,0,1,.1.3v3.2c0,0.1,0,.3-0.1.3a0.37,0.37,0,0,1-.3.1H413a0.47,0.47,0,0,1-.5-0.5V323.9c0-.1,0-0.3.1-0.3a0.37,0.37,0,0,1,.3-0.1h12.8A1.89,1.89,0,0,0,426.1,324.1Z" transform="translate(-215.9 -197.9)"/><path class="cls-1" d="M453.8,323.9c0.1,0,.3,0,0.3.1a0.37,0.37,0,0,1,.1.3v17.1c0,0.1,0,.3-0.1.3a0.37,0.37,0,0,1-.3.1h-3.6c-0.1,0-.3,0-0.3-0.1a0.37,0.37,0,0,1-.1-0.3v-6a0.35,0.35,0,0,0-.4-0.4h-5.1c-0.1,0-.3,0-0.3.1a0.37,0.37,0,0,0-.1.3v6a0.47,0.47,0,0,1-.5.5h-3.6a0.47,0.47,0,0,1-.5-0.5V324.3a0.47,0.47,0,0,1,.5-0.5h3.6a0.47,0.47,0,0,1,.5.5v5.8a0.47,0.47,0,0,0,.5.5h5.1a0.35,0.35,0,0,0,.4-0.4v-5.8c0-.1,0-0.3.1-0.3a0.37,0.37,0,0,1,.3-0.1h3.5v-0.1Z" transform="translate(-215.9 -197.9)"/><path class="cls-1" d="M470.5,323.9a5,5,0,0,1,1.2.2,8.79,8.79,0,0,1,1,.6,2.08,2.08,0,0,1,.6,1,5,5,0,0,1,.2,1.2v14.6c0,0.1,0,.3-0.1.3a0.37,0.37,0,0,1-.3.1h-3.6c-0.1,0-.3,0-0.3-0.1a0.37,0.37,0,0,1-.1-0.3v-4.6c0-.1,0-0.3-0.1-0.3a0.37,0.37,0,0,0-.3-0.1h-5.1c-0.1,0-.3,0-0.3.1a0.37,0.37,0,0,0-.1.3v4.6a0.47,0.47,0,0,1-.5.5h-3.6a0.47,0.47,0,0,1-.5-0.5V326.9a5,5,0,0,1,.2-1.2,8.79,8.79,0,0,1,.6-1,2.08,2.08,0,0,1,1-.6,2.54,2.54,0,0,1,1.2-.2h8.9Zm-1.5,8.6V328h-6.1v4.5H469Z" transform="translate(-215.9 -197.9)"/><path class="cls-1" d="M482.2,328.4a0.37,0.37,0,0,0-.1.3v8.4a0.35,0.35,0,0,0,.4.4h8.3c0.1,0,.3,0,0.3.1a0.37,0.37,0,0,1,.1.3v3.4c0,0.1,0,.3-0.1.3a0.37,0.37,0,0,1-.3.1H480.5a5,5,0,0,1-1.2-.2,8.79,8.79,0,0,1-1-.6,2.08,2.08,0,0,1-.6-1,2.54,2.54,0,0,1-.2-1.2V326.6a5,5,0,0,1,.2-1.2,8.79,8.79,0,0,1,.6-1,2.08,2.08,0,0,1,1-.6,2.54,2.54,0,0,1,1.2-.2h10.3c0.1,0,.3,0,0.3.1a0.37,0.37,0,0,1,.1.3v3.4c0,0.1,0,.3-0.1.3a0.37,0.37,0,0,1-.3.1h-8.3C482.4,328.3,482.3,328.4,482.2,328.4Z" transform="translate(-215.9 -197.9)"/><path class="cls-1" d="M505.7,331.5c-0.1.1-.1,0.1,0,0.2l6,9.9a0.19,0.19,0,0,1,0,.3,0.28,0.28,0,0,1-.3.1h-4.3a0.6,0.6,0,0,1-.4-0.1l-0.3-.3-3.9-7c-0.1-.1-0.1-0.1-0.1,0l-2.1,2.3a0.52,0.52,0,0,0-.2.4,0.9,0.9,0,0,0-.1.5v3.8a0.47,0.47,0,0,1-.5.5H496a0.47,0.47,0,0,1-.5-0.5V324.5a0.47,0.47,0,0,1,.5-0.5h3.6a0.47,0.47,0,0,1,.5.5v7.7l6.7-7.8a1.38,1.38,0,0,1,.4-0.3,0.76,0.76,0,0,1,.4-0.1h4.3c0.1,0,.2,0,0.2.1a0.37,0.37,0,0,1-.1.3Z" transform="translate(-215.9 -197.9)"/><path class="cls-1" d="M519.6,341.5a0.47,0.47,0,0,1-.5.5h-3.6a0.47,0.47,0,0,1-.5-0.5V324.4a0.47,0.47,0,0,1,.5-0.5h3.6a0.47,0.47,0,0,1,.5.5v17.1Z" transform="translate(-215.9 -197.9)"/><path class="cls-1" d="M537,324.2a8.79,8.79,0,0,1,1,.6,2.07,2.07,0,0,1,.6,1,2.54,2.54,0,0,1,.2,1.2v14.6c0,0.1,0,.3-0.1.3a0.37,0.37,0,0,1-.3.1h-3.6a0.35,0.35,0,0,1-.4-0.4V328.9a0.35,0.35,0,0,0-.4-0.4h-5.1c-0.1,0-.3,0-0.3.1s-0.1.2-.1,0.3v12.7a0.47,0.47,0,0,1-.5.5h-3.6a0.47,0.47,0,0,1-.5-0.5V324.5a0.47,0.47,0,0,1,.5-0.5h11.7A1.08,1.08,0,0,1,537,324.2Z" transform="translate(-215.9 -197.9)"/><path class="cls-1" d="M557.9,332.3a0.37,0.37,0,0,1,.1.3V339a5,5,0,0,1-.2,1.2,8.8,8.8,0,0,1-.6,1,2.07,2.07,0,0,1-1,.6,2.54,2.54,0,0,1-1.2.2h-9.1a5,5,0,0,1-1.2-.2,8.79,8.79,0,0,1-1-.6,2.07,2.07,0,0,1-.6-1,2.54,2.54,0,0,1-.2-1.2V327a5,5,0,0,1,.2-1.2,3.33,3.33,0,0,1,.6-1,2.07,2.07,0,0,1,1-.6,2.54,2.54,0,0,1,1.2-.2h10.7c0.1,0,.3,0,0.3.1a0.37,0.37,0,0,1,.1.3v3.4c0,0.1,0,.3-0.1.3a0.37,0.37,0,0,1-.3.1H548c-0.1,0-.3,0-0.3.1a0.37,0.37,0,0,0-.1.3V337a0.35,0.35,0,0,0,.4.4h5.1a0.35,0.35,0,0,0,.4-0.4v-4.5c0-.1,0-0.3.1-0.3a0.37,0.37,0,0,1,.3-0.1h3.6A0.52,0.52,0,0,1,557.9,332.3Z" transform="translate(-215.9 -197.9)"/><path class="cls-2" d="M324.9,199.5a19.38,19.38,0,0,1,6,4.1,21.26,21.26,0,0,1,4.1,6,18.47,18.47,0,0,1,1.5,7.4v94.8a3.07,3.07,0,0,1-3.1,3.1H310.7a2.58,2.58,0,0,1-2.1-.9,3.29,3.29,0,0,1-.8-2.2V225.6H289.5v86.2a3.29,3.29,0,0,1-.8,2.2,2.72,2.72,0,0,1-2.1.9H266a3.07,3.07,0,0,1-3.1-3.1V225.6H244.6v86.2c0,2.1-1,3.1-3.1,3.1H219c-2.1,0-3.1-1-3.1-3.1V201.1c0-2.1,1-3.1,3.1-3.1h98.4A19,19,0,0,1,324.9,199.5Z" transform="translate(-215.9 -197.9)"/><path class="cls-3" d="M324.9,199.5a19.38,19.38,0,0,1,6,4.1,21.26,21.26,0,0,1,4.1,6,18.47,18.47,0,0,1,1.5,7.4v8.4l-28.7.2H244.7l-28.7-.2V201c0-2.1,1-3.1,3.1-3.1h98.4A20.9,20.9,0,0,1,324.9,199.5Z" transform="translate(-215.9 -197.9)"/><path class="cls-4" d="M435.4,286.5a2.79,2.79,0,0,1,2.2.9,3.17,3.17,0,0,1,.9,2.3v22.1a3.34,3.34,0,0,1-.9,2.3,2.94,2.94,0,0,1-2.2.9H357.7c-2.2,0-3.3-1.1-3.3-3.2V201.2c0-2.1,1.1-3.2,3.3-3.2h23.8c2.2,0,3.3,1.1,3.3,3.2v82.4a2.7,2.7,0,0,0,1,2.2,3.09,3.09,0,0,0,2.3.8h47.3v-0.1Z" transform="translate(-215.9 -197.9)"/><path class="cls-5" d="M384.6,314.9H357.7c-2.2,0-3.3-1.1-3.3-3.2V201.2c0-2.1,1.1-3.2,3.3-3.2h23.8c2.2,0,3.3,1.1,3.3,3.2v82.4C384.8,284.4,384.6,314.9,384.6,314.9Z" transform="translate(-215.9 -197.9)"/><path class="cls-6" d="M554.8,198a3.17,3.17,0,0,1,2.3.9,3.26,3.26,0,0,1,1,2.3V312.1a3,3,0,0,1-1,2.3,3.17,3.17,0,0,1-2.3.9H530.6a3.17,3.17,0,0,1-2.3-.9,3.26,3.26,0,0,1-1-2.3V273.4a2.93,2.93,0,0,0-3.2-3H490.2a3.57,3.57,0,0,0-2.3.8,3,3,0,0,0-1,2.2v38.7c0,2.1-1.1,3.2-3.3,3.2h-24c-2.2,0-3.3-1.1-3.3-3.2V201.2c0-2.1,1.1-3.2,3.3-3.2h24c2.2,0,3.3,1.1,3.3,3.2v37.5c0,2.1,1.1,3.2,3.3,3.2h33.9a3.08,3.08,0,0,0,3.2-3.2V201.2a3,3,0,0,1,1-2.3,3.17,3.17,0,0,1,2.3-.9h24.2Z" transform="translate(-215.9 -197.9)"/><path class="cls-7" d="M487,273.4v38.7c0,2.1-1.1,3.2-3.3,3.2h-24c-2.2,0-3.3-1.1-3.3-3.2V201.2c0-2.1,1.1-3.2,3.3-3.2h24c2.2,0,3.3,1.1,3.3,3.2v72.2Z" transform="translate(-215.9 -197.9)"/><path class="cls-7" d="M554.8,198a3.17,3.17,0,0,1,2.3.9,3.26,3.26,0,0,1,1,2.3V312.1a3,3,0,0,1-1,2.3,3.17,3.17,0,0,1-2.3.9H530.6a3.17,3.17,0,0,1-2.3-.9,3.26,3.26,0,0,1-1-2.3V201.2a3,3,0,0,1,1-2.3,3.17,3.17,0,0,1,2.3-.9h24.2Z" transform="translate(-215.9 -197.9)"/></g></svg>
