<?xml version="1.0" encoding="utf-8"?>
<!-- Generator: Adobe Illustrator 19.2.0, SVG Export Plug-In . SVG Version: 6.00 Build 0)  -->
<svg version="1.1" id="Layer_1" xmlns="http://www.w3.org/2000/svg" xmlns:xlink="http://www.w3.org/1999/xlink" x="0px" y="0px"
  viewBox="0 0 1280 484" style="enable-background:new 0 0 1280 484;" xml:space="preserve">
<style type="text/css">
  .st0{fill:none;}
  .st1{fill:#064370;}
  .st2{opacity:0.1;}
  .st3{fill:#FFFFFF;}
  .st4{opacity:0.2;}
  .st5{fill:#003F6B;}
</style>
<rect y="-158" class="st0" width="1278.2" height="800.3"/>
<g>
  <g>
    <path d="M395.5,233v1.8c0,8.6,1.6,15,4.7,19.2s8.5,6.3,16.2,6.3s15.3-2.9,22.7-8.8c2.1,1.6,3.2,4.1,3.2,7.4s-2.9,6.8-8.8,10.3
      s-13.2,5.3-22.1,5.3c-11.5,0-20.4-3.4-26.7-10.1c-6.3-6.7-9.5-17-9.5-30.7s3.4-24.6,10.3-32.5c6.8-7.9,16.3-11.9,28.3-11.9
      c10.2,0,17.8,3.2,22.8,9.6s7.5,14.8,7.2,25.2v9.1h-48.3V233z M412,201.9c-8.7,0-14,6.7-15.8,20.1h29c-0.2-7.2-1.4-12.4-3.7-15.4
      C419.3,203.4,416.2,201.9,412,201.9z"/>
    <path d="M481,198.4c6.9-6.2,14.7-9.2,23.5-9.2s16.3,3.1,22.5,9.3c6.3,6.2,9.5,16.1,9.7,29.7s-3.1,24.7-9.8,33.3
      c-6.7,8.6-16.6,12.9-29.7,12.9c-5.8,0-10.9-0.9-15.1-2.7v23.7h0.2l11.1,1c0.6,6.9-1.8,10.3-7.2,10.3h-35.5v-1.3c0-5.8,2.3-9,7-9.4
      l4.9-0.3v-91.5l-6.8-0.8c-3.3-0.4-4.9-3.6-4.9-9.6l28.7-3.7L481,198.4z M498.5,261.5c12,0,18-9.9,18-29.8c0-9.1-1.6-16.2-4.7-21.2
      c-3.1-5-7.6-7.5-13.3-7.5c-5.7,0-11.2,2.4-16.4,7.2v44.9C487.2,259.3,492.6,261.5,498.5,261.5z"/>
    <path d="M582.8,272h-35.5v-1.3c0-5.8,2.3-9,7-9.4l4.9-0.3v-57.8l-6.2-0.6c-4.4-0.4-6.3-3.7-5.9-9.9l31.5-3.5v71.5l11.3,1
      C590.6,268.5,588.3,272,582.8,272z M579.5,170.2c0,3.3-1.1,6.1-3.3,8.4s-5,3.4-8.4,3.4c-3.3,0-6.2-1.1-8.4-3.4
      c-2.3-2.3-3.4-5.1-3.4-8.4s1.1-6.1,3.4-8.4c2.3-2.3,5.1-3.4,8.4-3.4c3.3,0,6.1,1.1,8.4,3.4C578.4,164.1,579.5,166.9,579.5,170.2z"
      />
    <path d="M655.9,221.6h43.5v1.3c0,5.8-2.3,9-7,9.4l-4.6,0.3h-1v24.7c-2.8,5.1-7.9,9.2-15.4,12.3c-7.5,3.1-16,4.7-25.5,4.7
      c-15.5,0-27.3-4.9-35.3-14.6s-12-23.4-12-41s4.5-31.7,13.6-42.4c9.1-10.6,22.2-15.9,39.4-15.9c12.1,0,21.4,2,27.9,6
      s9.7,8.9,9.7,14.9c0,4.2-1.4,7.5-4.3,9.9c-2.9,2.3-6.7,3.5-11.6,3.5c0-8-1.7-13.7-5.2-17.4c-3.5-3.6-9.6-5.4-18.4-5.4
      c-20.3,0-30.4,14.9-30.4,44.7c0,14.6,2.6,25.6,7.7,32.7c5.1,7.2,13.5,10.7,25.1,10.7c8.9,0,15.3-2.1,19.3-6.2v-21l-22.6-1
      C648.1,225.1,650.5,221.6,655.9,221.6z"/>
    <path d="M727.7,233v1.8c0,8.6,1.6,15,4.7,19.2c3.1,4.2,8.5,6.3,16.2,6.3s15.3-2.9,22.7-8.8c2.1,1.6,3.2,4.1,3.2,7.4
      s-2.9,6.8-8.8,10.3c-5.9,3.5-13.2,5.3-22.1,5.3c-11.5,0-20.4-3.4-26.7-10.1s-9.5-17-9.5-30.7s3.4-24.6,10.3-32.5
      c6.8-7.9,16.3-11.9,28.3-11.9c10.2,0,17.8,3.2,22.8,9.6s7.5,14.8,7.2,25.2v9.1h-48.3V233z M744.3,201.9c-8.7,0-14,6.7-15.8,20.1
      h29c-0.2-7.2-1.4-12.4-3.7-15.4C751.6,203.4,748.4,201.9,744.3,201.9z"/>
    <path d="M874.2,272H839v-1.3c0-5.8,2.3-9,7-9.4l4.6-0.3v-39.2c0-6.2-1.2-10.5-3.7-13c-2.4-2.5-5.8-3.7-10.2-3.7s-7.9,0.6-10.7,1.8
      c-2.8,1.2-5.6,3-8.6,5.6v48.2l11.3,1c0.6,6.9-1.8,10.3-7.2,10.3H786v-1.3c0-5.8,2.3-9,7-9.4l4.9-0.3v-56.8l-6.2-0.6
      c-4.4-0.4-6.3-3.7-5.9-9.9l28.8-3.5l1.1,9.7h0.5c3.9-3.4,7.7-6,11.4-7.9s8-2.8,13-2.8c8.2,0,15.1,2.7,20.8,8.2s8.5,13.9,8.5,25.2
      v38.1l11.3,1C882,268.5,879.6,272,874.2,272z"/>
    <path d="M910.2,233v1.8c0,8.6,1.6,15,4.7,19.2c3.1,4.2,8.5,6.3,16.2,6.3s15.3-2.9,22.7-8.8c2.1,1.6,3.2,4.1,3.2,7.4
      s-2.9,6.8-8.8,10.3c-5.9,3.5-13.2,5.3-22.1,5.3c-11.5,0-20.4-3.4-26.7-10.1s-9.5-17-9.5-30.7s3.4-24.6,10.3-32.5
      c6.8-7.9,16.3-11.9,28.3-11.9c10.2,0,17.8,3.2,22.8,9.6s7.5,14.8,7.2,25.2v9.1h-48.3V233z M926.7,201.9c-8.7,0-14,6.7-15.8,20.1
      h29c-0.2-7.2-1.4-12.4-3.7-15.4C934.1,203.4,930.9,201.9,926.7,201.9z"/>
    <path d="M1020.5,195.1c2.7,2.3,4,5.4,4,9.1s-1.2,6.6-3.6,8.6c-2.4,2-5.4,2.8-9.2,2.2c0-3.9-1.5-7.2-4.6-10
      c-3.1-2.7-6.5-4.1-10.3-4.1s-6.7,0.7-8.7,2.1s-3,3.3-3,5.7c0,2.3,1.5,4.4,4.4,6.3s7.1,3.8,12.4,6c5.4,2.1,9.2,3.8,11.5,5
      s4.8,2.8,7.5,4.9c5.1,3.8,7.6,9.5,7.6,17s-3,13.8-9.1,18.9s-14.1,7.6-24.2,7.6c-7.4,0-13.9-1.4-19.5-4.1s-8.4-6.9-8.4-12.4
      c0-3.7,1.3-6.6,4-8.7s5.8-3.1,9.4-3.1c1.4,10.8,7.5,16.2,18.5,16.2c8.8,0,13.2-2.9,13.2-8.8c0-3.8-2.3-6.9-7-9.2
      c-2.5-1.4-5.6-2.8-9.2-4.1c-3.6-1.4-6.4-2.6-8.5-3.6s-4.3-2.3-6.8-3.9c-2.4-1.6-4.5-3.2-6.1-4.9c-3.5-3.9-5.3-8.7-5.3-14.3
      c0-7.6,3.1-13.6,9.2-17.8c6.2-4.2,13.5-6.4,22.1-6.4S1016.2,191.1,1020.5,195.1z"/>
    <path d="M1095.2,191.6h22.8v1.3c0,5.5-2.3,8.7-7,9.4l-0.6,0.2l-26.4,64.2h0.2c-0.5,1.2-1.5,3.4-2.9,6.7c-1.4,3.3-2.4,5.6-2.9,6.9
      c-0.6,1.3-1.6,3.4-2.9,6.3c-1.4,2.9-2.5,5-3.3,6.3c-0.9,1.3-2,3-3.3,5.2c-1.4,2.1-2.7,3.7-3.9,4.7c-1.2,1-2.6,2.1-4.2,3.3
      c-2.9,2.1-6.5,3.2-10.8,3.2c-4.4,0-7.9-1.1-10.5-3.3c-2.7-2.2-4-5-4-8.2s1-5.8,2.9-7.8s4-2.9,6.4-2.9c2.3,0,3.8,0.1,4.3,0.3
      c-1.2,5.6,0.1,8.4,3.7,8.4c3.1,0,6.3-3.3,9.8-10c3.4-6.6,6.2-13.4,8.4-20.3l-28.2-62.4h-0.8l-8.8-1c-0.3-0.6-0.3-2.1,0.2-4.3
      c1-4,3.3-6,7-6h33c-0.3,3.9-0.8,6.4-1.4,7.3c-1.6,1.8-3.5,2.9-5.6,3.3l-1.8,0.3l16.1,39.8l15.3-39.6l-7.5-0.8
      C1087.4,195,1089.8,191.6,1095.2,191.6z"/>
    <path d="M1174.9,195.1c2.7,2.3,4,5.4,4,9.1s-1.2,6.6-3.6,8.6s-5.4,2.8-9.2,2.2c0-3.9-1.5-7.2-4.6-10c-3.1-2.7-6.5-4.1-10.3-4.1
      s-6.7,0.7-8.7,2.1s-3,3.3-3,5.7c0,2.3,1.5,4.4,4.4,6.3s7.1,3.8,12.4,6c5.4,2.1,9.2,3.8,11.5,5s4.8,2.8,7.5,4.9
      c5.1,3.8,7.6,9.5,7.6,17s-3,13.8-9.1,18.9s-14.1,7.6-24.2,7.6c-7.4,0-13.9-1.4-19.5-4.1s-8.4-6.9-8.4-12.4c0-3.7,1.3-6.6,4-8.7
      s5.8-3.1,9.4-3.1c1.4,10.8,7.5,16.2,18.5,16.2c8.8,0,13.2-2.9,13.2-8.8c0-3.8-2.3-6.9-7-9.2c-2.5-1.4-5.6-2.8-9.2-4.1
      c-3.6-1.4-6.4-2.6-8.5-3.6s-4.3-2.3-6.8-3.9c-2.4-1.6-4.5-3.2-6.1-4.9c-3.5-3.9-5.3-8.7-5.3-14.3c0-7.6,3.1-13.6,9.2-17.8
      c6.2-4.2,13.5-6.4,22.1-6.4S1170.6,191.1,1174.9,195.1z"/>
  </g>
  <g>
    <path d="M575.7,309.3h-5.9v-0.2c0-0.9,0.4-1.3,1.1-1.4l0.9-0.1l-1.2-4.3h-5.2l-1.2,4.3l2.1,0.2c0.1,1-0.2,1.5-1.1,1.5H560v-0.2
      c0-0.9,0.4-1.3,1.1-1.4l1.1-0.1l5.2-16.8c0.7-0.1,1.5-0.1,2.4,0l5.2,16.8l1.8,0.2C576.8,308.8,576.5,309.3,575.7,309.3z
      M565.8,301.7h4.3l-2.1-7.5L565.8,301.7z"/>
    <path d="M597.1,290.8h4.8v0.2c0,0.9-0.4,1.3-1.1,1.4l-0.9,0.1v9.4c0,5.3-2.3,7.9-6.8,7.9c-2.1,0-3.7-0.6-4.8-1.9
      c-1.1-1.2-1.6-3.2-1.6-5.9v-9.4l-2-0.2c-0.1-1,0.2-1.5,1-1.5h5.8v0.2c0,0.9-0.4,1.3-1.1,1.4l-0.9,0.1v9.7c0,2,0.3,3.4,0.9,4.3
      s1.6,1.4,3,1.4c3,0,4.4-1.8,4.4-5.4v-9.9l-1.9-0.2C595.9,291.3,596.3,290.8,597.1,290.8z"/>
    <path d="M617.9,309.3h-5.6v-0.2c0-0.8,0.4-1.3,1.1-1.4l0.9-0.1v-6.8c0-2.1-0.9-3.2-2.6-3.2c-0.7,0-1.3,0.1-1.9,0.3
      c-0.5,0.2-1.1,0.6-1.7,1.1v8.5l1.9,0.2c0.1,1-0.2,1.5-1,1.5h-5.7V309c0-0.4,0.1-0.7,0.2-0.9c0.2-0.3,0.5-0.5,0.9-0.5l0.9-0.1
      v-10.1l-1.2-0.1c-0.6-0.1-0.9-0.5-0.9-1.5l4.4-0.5l0.2,1.8h0.1c1.4-1.3,2.8-1.9,4.2-1.9s2.6,0.4,3.5,1.3s1.4,2.3,1.4,4.2v6.8
      l1.9,0.2C619,308.8,618.7,309.3,617.9,309.3z"/>
    <path d="M626.3,309.3h-5.7v-0.2c0-0.8,0.4-1.3,1.1-1.4l0.9-0.1v-10.2l-1.2-0.1c-0.6-0.1-0.9-0.5-0.9-1.5l4.8-0.5v12.3l2,0.2
      C627.4,308.8,627.1,309.3,626.3,309.3z M625.5,292.1c0,0.5-0.2,0.9-0.5,1.3c-0.3,0.3-0.8,0.5-1.2,0.5c-0.5,0-0.9-0.2-1.2-0.5
      s-0.5-0.8-0.5-1.3s0.2-0.9,0.5-1.3c0.3-0.3,0.8-0.5,1.2-0.5c0.5,0,0.9,0.2,1.2,0.5S625.5,291.6,625.5,292.1z"/>
    <path d="M633.9,295.8v0.5c0,0.4-0.2,0.7-0.6,0.9c-0.1,0.1-0.5,0.1-1.2,0.2l2.9,7.8l3-7.8l-1.3-0.1c-0.1-1,0.2-1.5,1-1.5h3.8
      c0,1-0.3,1.5-0.9,1.6h-0.3l-4.9,11.9h-1.6l-4.7-11.9l-1.2-0.2c0-1,0.3-1.5,1-1.5h5V295.8z"/>
    <path d="M645.5,302.5v0.5c0,1.5,0.3,2.6,0.9,3.4c0.6,0.8,1.5,1.2,2.9,1.2c1.3,0,2.6-0.5,3.9-1.5c0.3,0.2,0.5,0.5,0.5,1
      c0,0.6-0.5,1.2-1.5,1.7c-1,0.6-2.2,0.9-3.6,0.9c-1.9,0-3.3-0.6-4.4-1.7c-1-1.1-1.6-2.9-1.6-5.2s0.6-4.1,1.8-5.5
      c1.2-1.3,2.7-2,4.4-2s3.1,0.5,3.9,1.6c0.8,1.1,1.2,2.4,1.2,4v1.5h-8.4V302.5z M648.7,297.2c-1.6,0-2.7,1.2-3,3.6h5.5
      C651.1,298.4,650.3,297.2,648.7,297.2z"/>
    <path d="M661.1,296.8c0,0,0.4-0.2,1.2-0.7s1.5-0.7,2-0.7c0.6,0,1,0.2,1.4,0.5s0.6,0.9,0.6,1.7s-0.2,1.5-0.7,1.9
      c-0.3,0.2-0.8,0.3-1.4,0.2c0-0.8-0.1-1.3-0.2-1.6c-0.2-0.3-0.4-0.4-0.8-0.4c-0.9,0-1.8,0.6-2.7,1.8v8.1l2.3,0.2
      c0.1,1-0.2,1.5-1.1,1.5h-5.9v-0.2c0-0.8,0.4-1.3,1.1-1.4l0.9-0.1v-10.1l-1.3-0.1c-0.5-0.1-0.7-0.5-0.7-1.4l4.4-0.6l0.2,2.2h0.1
      C660.9,297.1,661.1,296.8,661.1,296.8z"/>
    <path d="M667.5,299.3c0-1.2,0.5-2.2,1.5-2.9c1-0.7,2.1-1.1,3.3-1.1s2.2,0.2,3,0.6s1.2,1,1.2,1.8c0,0.6-0.2,1-0.6,1.3
      c-0.4,0.3-0.8,0.4-1.4,0.3c0-0.7-0.2-1.2-0.7-1.6s-1.1-0.7-1.8-0.7s-1.2,0.1-1.7,0.4c-0.4,0.3-0.6,0.7-0.6,1.1s0.3,0.9,0.8,1.2
      c0.5,0.3,1.2,0.7,2.2,1c0.9,0.4,1.6,0.7,2,0.9c0.4,0.2,0.8,0.5,1.2,0.8c0.8,0.6,1.2,1.5,1.2,2.7s-0.5,2.3-1.5,3.1
      c-1,0.9-2.3,1.3-4,1.3c-1.2,0-2.3-0.3-3.2-0.7c-0.9-0.5-1.4-1.1-1.4-2c0-0.6,0.2-1,0.6-1.3s0.8-0.5,1.4-0.5c0.1,0.8,0.5,1.5,1,2
      s1.2,0.7,2,0.7s1.5-0.1,2-0.4s0.7-0.8,0.7-1.3s-0.2-1-0.7-1.3c-0.4-0.3-1.1-0.6-1.9-1c-0.9-0.3-1.5-0.6-1.9-0.8
      c-0.4-0.2-0.9-0.5-1.4-0.8C668,301.5,667.5,300.5,667.5,299.3z"/>
    <path d="M684.5,309.3h-5.7v-0.2c0-0.8,0.4-1.3,1.1-1.4l0.9-0.1v-10.2l-1.2-0.1c-0.6-0.1-0.9-0.5-0.9-1.5l4.8-0.5v12.3l2,0.2
      C685.7,308.8,685.3,309.3,684.5,309.3z M683.7,292.1c0,0.5-0.2,0.9-0.5,1.3c-0.3,0.3-0.8,0.5-1.2,0.5c-0.5,0-0.9-0.2-1.2-0.5
      s-0.5-0.8-0.5-1.3s0.2-0.9,0.5-1.3c0.3-0.3,0.8-0.5,1.2-0.5c0.5,0,0.9,0.2,1.2,0.5C683.6,291.1,683.7,291.6,683.7,292.1z"/>
    <path d="M691.3,297.4v7.7c0,1.6,0.5,2.4,1.5,2.4c0.7,0,1.2-0.1,1.7-0.3s1-0.5,1.5-0.9c0.1,0,0.2,0.1,0.3,0.3
      c0.1,0.2,0.2,0.4,0.2,0.6c0,0.6-0.5,1.2-1.4,1.7s-1.9,0.7-2.9,0.7c-1.4,0-2.4-0.4-2.9-1.2c-0.5-0.8-0.8-1.9-0.8-3.4v-7.7h-2.1
      c0-1.1,0.4-1.7,1.1-1.7h1v-3.4l2.8-0.4v3.8h5c0,0.2,0,0.5-0.1,0.8c-0.1,0.6-0.4,0.9-0.9,0.9h-4V297.4z"/>
    <path d="M707.2,295.8h3.8v0.2c0,0.8-0.4,1.2-1.1,1.3h-0.2l-4.5,11.1l0,0c-1,2.3-1.7,3.8-2.1,4.5c-1,1.7-2.2,2.5-3.4,2.6
      c-0.7,0-1.3-0.2-1.7-0.5s-0.6-0.8-0.6-1.2s0.1-0.9,0.4-1.2c0.3-0.3,0.6-0.4,0.9-0.4c0.3,0,0.6,0,0.7,0.1c-0.1,0.2-0.1,0.5,0,0.8
      s0.3,0.5,0.6,0.5c0.5,0,1-0.6,1.6-1.7s1.1-2.3,1.5-3.4l-4.8-10.9h-0.1l-1.4-0.2c-0.1-1,0.2-1.5,1-1.5h5.2v0.2
      c0,0.8-0.4,1.2-1.1,1.4l-0.6,0.1l3,7.7l2.9-7.6l-1.4-0.2C706.1,296.3,706.4,295.8,707.2,295.8z"/>
    <path d="M719.3,302.8c0-2.3,0.6-4.1,1.7-5.4c1.1-1.3,2.6-2,4.5-2s3.4,0.6,4.5,1.8c1.1,1.2,1.6,2.9,1.7,5.2c0,2.3-0.6,4.1-1.7,5.4
      c-1.1,1.3-2.7,2-4.7,2s-3.5-0.6-4.5-1.8S719.3,305.1,719.3,302.8z M725.5,297.2c-1.1,0-1.9,0.5-2.5,1.5s-0.9,2.3-0.9,3.9
      s0.3,2.9,0.8,3.9c0.6,1,1.4,1.4,2.4,1.4c1.1,0,1.9-0.5,2.5-1.4s0.9-2.2,0.9-3.8s-0.3-2.9-0.8-4S726.5,297.2,725.5,297.2z"/>
    <path d="M735.6,295.8V295c0-1.6,0.4-2.8,1.3-3.8c0.9-1,2-1.5,3.5-1.5c1.8,0,2.7,0.6,2.7,1.7c0,0.5-0.2,0.9-0.5,1.2
      c-0.3,0.3-0.8,0.4-1.3,0.4c0-0.5-0.1-1-0.4-1.2c-0.3-0.3-0.6-0.4-0.9-0.4c-1,0-1.6,1.1-1.6,3.3v1.1h3.4c0.1,1.1-0.3,1.7-1.1,1.7
      h-2.3v10.2l2.7,0.2c0.1,1-0.3,1.5-1,1.5h-6.4v-0.2c0-0.8,0.4-1.3,1.1-1.4l0.9-0.1v-10.3h-1.9c0-1.1,0.4-1.7,1.1-1.7L735.6,295.8
      L735.6,295.8z"/>
    <path d="M761.5,291.7c0.5,0.5,0.8,1.1,0.8,1.9s-0.2,1.3-0.6,1.6s-0.9,0.5-1.6,0.4c0-2.2-1-3.3-3.1-3.3c-0.9,0-1.7,0.2-2.3,0.7
      c-0.6,0.4-0.9,1-0.9,1.8c0,0.6,0.2,1.1,0.5,1.5c0.1,0.1,0.3,0.3,0.4,0.4c0.1,0.1,0.2,0.2,0.5,0.4c0.2,0.1,0.4,0.2,0.5,0.3
      s0.3,0.2,0.6,0.3s0.5,0.2,0.6,0.3c0.5,0.2,1,0.4,1.4,0.6c1.8,0.8,3.1,1.5,3.9,2.3c0.8,0.7,1.1,1.7,1.1,3c0,1.8-0.6,3.2-1.9,4.4
      c-1.3,1.1-2.9,1.7-5.1,1.7c-1.5,0-2.8-0.3-4-0.9c-1.1-0.6-1.7-1.4-1.7-2.5c0-0.6,0.2-1.1,0.6-1.5c0.4-0.4,1-0.6,1.8-0.6
      c0.2,2.4,1.4,3.6,3.7,3.6c1.2,0,2.2-0.3,3-0.9s1.1-1.4,1.1-2.3s-0.4-1.7-1.2-2.3c-0.4-0.3-0.8-0.6-1.2-0.7
      c-0.4-0.2-0.9-0.4-1.7-0.7c-0.7-0.3-1.3-0.6-1.7-0.7c-0.4-0.2-0.8-0.4-1.4-0.8s-1-0.7-1.2-1c-0.7-0.8-1-1.8-1-2.9
      c0-1.6,0.6-2.9,1.8-3.7c1.2-0.9,2.6-1.3,4.3-1.3C759.1,290.4,760.5,290.8,761.5,291.7z"/>
    <path d="M779.6,309.3h-5.7v-0.2c0-0.8,0.4-1.3,1.1-1.4l0.9-0.1V301c0-1.2-0.2-2-0.7-2.5s-1.2-0.8-2.3-0.8s-2.1,0.5-3.2,1.4v8.5
      l2,0.2c0.1,1-0.2,1.5-1,1.5H765v-0.2c0-0.8,0.4-1.3,1.1-1.4l1-0.1v-15.4l-1.2-0.1c-0.6-0.1-0.9-0.6-0.9-1.5l4.8-0.6v7.1
      c1.3-1.2,2.6-1.8,4-1.8s2.6,0.5,3.5,1.4s1.4,2.3,1.4,4.2v6.6l2,0.2C780.8,308.8,780.4,309.3,779.6,309.3z"/>
    <path d="M785.1,302.5v0.5c0,1.5,0.3,2.6,0.9,3.4c0.6,0.8,1.5,1.2,2.9,1.2c1.3,0,2.6-0.5,3.9-1.5c0.3,0.2,0.5,0.5,0.5,1
      c0,0.6-0.5,1.2-1.5,1.7c-1,0.6-2.2,0.9-3.6,0.9c-1.9,0-3.3-0.6-4.4-1.7c-1-1.1-1.6-2.9-1.6-5.2s0.6-4.1,1.8-5.5
      c1.2-1.3,2.7-2,4.4-2c1.8,0,3.1,0.5,3.9,1.6c0.8,1.1,1.2,2.4,1.2,4v1.5h-8.4V302.5z M788.3,297.2c-1.6,0-2.7,1.2-3,3.6h5.5
      C790.7,298.4,789.9,297.2,788.3,297.2z"/>
    <path d="M797.3,295.8V295c0-1.6,0.4-2.8,1.3-3.8c0.9-1,2-1.5,3.5-1.5c1.8,0,2.7,0.6,2.7,1.7c0,0.5-0.2,0.9-0.5,1.2
      c-0.3,0.3-0.8,0.4-1.3,0.4c0-0.5-0.1-1-0.4-1.2c-0.3-0.3-0.6-0.4-0.9-0.4c-1,0-1.6,1.1-1.6,3.3v1.1h3.4c0.1,1.1-0.3,1.7-1.1,1.7
      h-2.3v10.2l2.7,0.2c0.1,1-0.3,1.5-1,1.5h-6.4v-0.2c0-0.8,0.4-1.3,1.1-1.4l0.9-0.1v-10.3h-1.9c0-1.1,0.4-1.7,1.1-1.7L797.3,295.8
      L797.3,295.8z"/>
    <path d="M807.2,295.8V295c0-1.6,0.4-2.8,1.3-3.8c0.9-1,2-1.5,3.5-1.5c1.8,0,2.7,0.6,2.7,1.7c0,0.5-0.2,0.9-0.5,1.2
      c-0.3,0.3-0.8,0.4-1.3,0.4c0-0.5-0.1-1-0.4-1.2c-0.3-0.3-0.6-0.4-0.9-0.4c-1,0-1.6,1.1-1.6,3.3v1.1h3.4c0.1,1.1-0.3,1.7-1.1,1.7
      H810v10.2l2.7,0.2c0.1,1-0.3,1.5-1,1.5h-6.4v-0.2c0-0.8,0.4-1.3,1.1-1.4l0.9-0.1v-10.3h-1.9c0-1.1,0.4-1.7,1.1-1.7L807.2,295.8
      L807.2,295.8z"/>
    <path d="M821,309.3h-5.7v-0.2c0-0.8,0.4-1.3,1.1-1.4l1-0.1v-10.2l-1.2-0.1c-0.6-0.1-0.9-0.5-0.9-1.5l4.8-0.5v12.3l2,0.2
      C822.1,308.8,821.8,309.3,821,309.3z M820.2,292.1c0,0.5-0.2,0.9-0.5,1.3s-0.8,0.5-1.2,0.5c-0.5,0-0.9-0.2-1.2-0.5
      s-0.5-0.8-0.5-1.3s0.2-0.9,0.5-1.3c0.3-0.3,0.8-0.5,1.2-0.5c0.5,0,0.9,0.2,1.2,0.5S820.2,291.6,820.2,292.1z"/>
    <path d="M826.5,302.5v0.5c0,1.5,0.3,2.6,0.9,3.4c0.6,0.8,1.5,1.2,2.9,1.2c1.3,0,2.6-0.5,3.9-1.5c0.3,0.2,0.5,0.5,0.5,1
      c0,0.6-0.5,1.2-1.5,1.7c-1,0.6-2.2,0.9-3.6,0.9c-1.9,0-3.3-0.6-4.4-1.7c-1-1.1-1.6-2.9-1.6-5.2s0.6-4.1,1.8-5.5
      c1.2-1.3,2.7-2,4.4-2c1.8,0,3.1,0.5,3.9,1.6c0.8,1.1,1.2,2.4,1.2,4v1.5h-8.4V302.5z M829.7,297.2c-1.6,0-2.7,1.2-3,3.6h5.5
      C832.1,298.4,831.3,297.2,829.7,297.2z"/>
    <path d="M842.4,309.3h-5.7v-0.2c0-0.4,0.1-0.7,0.2-0.9c0.2-0.3,0.5-0.5,0.9-0.5l1-0.1v-15.4l-1.2-0.1c-0.6-0.1-0.9-0.6-0.9-1.5
      l4.8-0.5v17.5l1.9,0.2C843.5,308.8,843.2,309.3,842.4,309.3z"/>
    <path d="M859,308.2c0,1-0.7,1.6-2.1,1.6s-2.2-0.6-2.4-1.7c-1.2,1.1-2.5,1.7-4,1.7s-2.8-0.5-3.8-1.6s-1.6-2.8-1.6-5
      s0.5-4.1,1.7-5.6c1.1-1.4,2.8-2.1,5-2.1c1,0,1.9,0.2,2.8,0.6v-3.7l-1.2-0.1c-0.7-0.1-0.9-0.6-0.9-1.5l4.8-0.6V308L859,308.2z
      M854.4,298.5c-0.9-0.8-2-1.2-3.1-1.2s-2.1,0.5-2.6,1.5s-0.8,2.3-0.8,3.8s0.3,2.8,0.9,3.7s1.4,1.4,2.5,1.4s2.1-0.5,3.2-1.4v-7.8
      H854.4z"/>
    <path d="M876.3,290.4c1.5,0,2.8,0.3,3.8,1s1.5,1.5,1.5,2.5c0,0.7-0.2,1.1-0.6,1.5s-1,0.5-1.7,0.5c0-1.1-0.3-2-0.8-2.6
      c-0.6-0.6-1.4-0.9-2.4-0.9c-1.7,0-3.1,0.7-4,2.1s-1.4,3.3-1.4,5.6s0.5,4.2,1.4,5.5s2.4,1.9,4.3,1.9s3.7-0.6,5-1.7
      c0.3,0.2,0.4,0.4,0.4,0.8c0,0.7-0.6,1.3-1.8,2s-2.7,1-4.3,1c-2.6,0-4.6-0.8-5.9-2.5c-1.3-1.6-2-3.9-2.1-6.9c0-3,0.7-5.4,2.2-7.2
      C871.3,291.3,873.5,290.4,876.3,290.4z"/>
    <path d="M883.5,302.8c0-2.3,0.6-4.1,1.7-5.4c1.1-1.3,2.6-2,4.5-2s3.4,0.6,4.5,1.8c1.1,1.2,1.6,2.9,1.7,5.2s-0.6,4.1-1.7,5.4
      c-1.1,1.3-2.7,2-4.7,2s-3.5-0.6-4.5-1.8C884,306.8,883.5,305.1,883.5,302.8z M889.7,297.2c-1.1,0-1.9,0.5-2.5,1.5
      s-0.9,2.3-0.9,3.9s0.3,2.9,0.8,3.9s1.4,1.4,2.4,1.4c1.1,0,1.9-0.5,2.5-1.4s0.9-2.2,0.9-3.8s-0.3-2.9-0.8-4
      S890.7,297.2,889.7,297.2z"/>
    <path d="M921,309.3h-5.7v-0.2c0-0.8,0.4-1.3,1.1-1.4l0.9-0.1V301c0-1.1-0.2-2-0.7-2.5s-1.2-0.8-2.3-0.8c-1,0-2.1,0.5-3.2,1.5
      c0.1,0.5,0.2,1.1,0.2,1.8v6.6l2,0.2c0.1,1-0.2,1.5-1.1,1.5h-5.7v-0.2c0-0.8,0.4-1.3,1.1-1.4l0.9-0.1V301c0-2.2-0.9-3.3-2.8-3.3
      c-1,0-2.1,0.5-3.2,1.4v8.5l2,0.2c0.1,1-0.2,1.5-1,1.5h-5.7v-0.2c0-0.8,0.4-1.3,1.1-1.4l1-0.1v-10.1l-1.1-0.1c-0.6-0.1-1-0.6-1-1.5
      l4.4-0.5l0.2,1.7h0.1c0.5-0.4,0.8-0.7,1.1-0.9s0.7-0.4,1.3-0.6s1.2-0.3,1.9-0.3s1.4,0.2,2.1,0.6c0.7,0.4,1.3,0.9,1.7,1.7
      c1.5-1.5,3-2.3,4.6-2.3c1.3,0,2.5,0.5,3.4,1.4s1.4,2.3,1.4,4.2v6.6l2,0.2C922.2,308.8,921.8,309.3,921,309.3z"/>
    <path d="M931.7,295.4c1.5,0,2.7,0.5,3.8,1.6c1,1.1,1.6,2.8,1.6,5c0,2.3-0.5,4.1-1.7,5.6s-2.8,2.1-5,2.1c-1,0-1.9-0.2-2.8-0.6v4.4
      l2,0.2c0.1,1-0.2,1.5-1.1,1.5H923V315c0-0.9,0.4-1.3,1.1-1.4l0.9-0.1v-15.9l-1.3-0.2c-0.5-0.1-0.8-0.5-0.8-1.4l4.4-0.5l0.3,1.6
      C928.9,296,930.2,295.4,931.7,295.4z M927.7,306.6c0.9,0.8,2,1.2,3.2,1.2s2-0.5,2.5-1.5s0.8-2.3,0.8-3.8s-0.3-2.8-0.9-3.7
      s-1.4-1.4-2.5-1.4s-2.1,0.5-3.2,1.4v7.8H927.7z"/>
    <path d="M951.7,308.2c0,1-0.7,1.5-2,1.5s-2.1-0.5-2.4-1.5c-1.2,1-2.5,1.5-3.9,1.5s-2.5-0.3-3.2-1s-1.1-1.6-1.1-2.7
      s0.4-2.1,1.3-2.9c0.9-0.8,2.3-1.1,4.2-1.1c0.8,0,1.7,0.1,2.5,0.2v-1.5c0-2.3-0.9-3.4-2.7-3.4c-0.7,0-1.3,0.2-1.7,0.7
      s-0.7,1.1-0.7,1.8c-0.6,0.1-1.1-0.1-1.5-0.3c-0.4-0.3-0.6-0.7-0.6-1.2c0-0.8,0.4-1.5,1.3-2.1s2-0.8,3.5-0.8s2.7,0.4,3.7,1.2
      s1.5,2.1,1.5,4v7.5L951.7,308.2z M947.2,304.1c-0.7-0.3-1.5-0.5-2.4-0.5s-1.5,0.2-2,0.5c-0.5,0.4-0.7,0.9-0.7,1.5s0.2,1.2,0.6,1.5
      c0.4,0.4,1,0.5,1.9,0.5s1.8-0.3,2.7-1L947.2,304.1L947.2,304.1z"/>
    <path d="M967.7,309.3h-5.6v-0.2c0-0.8,0.4-1.3,1.1-1.4l0.9-0.1v-6.8c0-2.1-0.9-3.2-2.6-3.2c-0.7,0-1.3,0.1-1.9,0.3
      c-0.5,0.2-1.1,0.6-1.7,1.1v8.5l1.9,0.2c0.1,1-0.2,1.5-1,1.5h-5.7V309c0-0.4,0.1-0.7,0.2-0.9c0.2-0.3,0.5-0.5,0.9-0.5l1-0.1v-10.1
      l-1.2-0.1c-0.6-0.1-0.9-0.5-0.9-1.5l4.4-0.5l0.2,1.8h0.1c1.4-1.3,2.8-1.9,4.2-1.9s2.6,0.4,3.5,1.3s1.4,2.3,1.4,4.2v6.8l1.9,0.2
      C968.8,308.8,968.5,309.3,967.7,309.3z"/>
    <path d="M979.6,295.8h3.8v0.2c0,0.8-0.4,1.2-1.1,1.3h-0.2l-4.5,11.1l0,0c-1,2.3-1.7,3.8-2.1,4.5c-1,1.7-2.2,2.5-3.4,2.6
      c-0.7,0-1.3-0.2-1.7-0.5s-0.6-0.8-0.6-1.2s0.1-0.9,0.4-1.2c0.3-0.3,0.6-0.4,0.9-0.4s0.6,0,0.7,0.1c-0.1,0.2-0.1,0.5,0,0.8
      s0.3,0.5,0.6,0.5c0.5,0,1-0.6,1.6-1.7s1.1-2.3,1.5-3.4l-4.8-10.9h-0.1l-1.4-0.2c-0.1-1,0.2-1.5,1-1.5h5.2v0.2
      c0,0.8-0.4,1.2-1.1,1.4l-0.6,0.1l3,7.7l2.9-7.6l-1.4-0.2C978.5,296.3,978.8,295.8,979.6,295.8z"/>
  </g>
</g>
<g>
  <path class="st1" d="M346.1,243c-4.6,7.5-23.3,8.9-44.7,8.5c-4.7-0.1-9.6-0.2-14.4-0.4c-13.3-0.5-26.8-1.3-37.9-1.3
    c-2.4,0-1.3-11.7-1-14c0.9-5.7,3.2-12.6,6.6-20c2.9-6.4,6.6-13.2,11-20.2c27.3-44,79.2-94.6,108.4-77.9
    C383.1,122.9,373.6,198.6,346.1,243z"/>
  <path class="st1" d="M280.3,337c-12.1-3.6-19.4-12.2-24.7-27.5c-1.4-4.2-2.7-8.8-3.9-14c-1.7-7.3-3.2-15.8-4.7-25.4
    c-0.3-2.2-1.4-13.2,0.7-14c0.1,0,0.1,0,0.2,0h1c0.6,0,1.2,0,1.9,0s1.3,0,2,0c0.8,0,1.6,0,2.4,0c30.8,0,58.3,1.5,67.1,13.5
    C342,296.6,290.4,340,280.3,337z"/>
  <path class="st1" d="M222.9,249.8c-11.1,0.1-24.5,0.8-37.8,1.3c-4.5,0.2-8.9,0.3-13.3,0.4c-22,0.4-41.3-0.9-46.1-8.5
    c-27.5-44.4-37-120.1-27.9-125.3c27.4-15.7,74.9,28,103.2,69.9c6.4,9.5,11.9,19,15.9,27.6c3.6,7.7,6,14.8,6.9,20.6
    C224.2,238.1,225.2,249.8,222.9,249.8z"/>
  <path class="st1" d="M224.8,270c-1.5,9.6-3,18.1-4.7,25.5c-1.3,5.8-2.8,10.9-4.4,15.4l0,0c-5.2,14.4-12.5,22.5-24.1,26
    c-10,3-61.7-40.3-42-67.3c8.9-12.2,37-13.6,68.4-13.6c0.3,0,0.6,0,0.9,0c1,0,1.9,0,2.9,0c0.5,0,0.9,0,1.4,0h0.8l0,0
    c0.1,0,0.2,0,0.3,0.1C226.1,257.1,225.1,267.9,224.8,270z"/>
</g>
<g class="st2">
  <path class="st3" d="M185.1,251.1c13.3-0.5,26.7-1.3,37.8-1.3c2.4,0,1.3-11.7,0.9-14c-0.9-5.9-3.3-12.9-6.9-20.6
    c-4-8.6-9.4-18.1-15.9-27.6c-19.5-22.3-43.7-39.6-59.1-30.8c-6.5,3.7,0.3,58,20,89.9c1.5,2.4,5.1,4,9.9,4.9L185.1,251.1z"/>
  <path class="st3" d="M217.9,256.2c2.1,0,4.2-0.1,6.3-0.1c2,1.1,1,11.8,0.6,14c-1.5,9.6-3,18.1-4.7,25.5c-1.3,5.8-2.8,10.9-4.4,15.4
    l0,0c-1.9,1.3-4.1,2.3-6.6,3.1c-7.2,2.2-44.2-28.9-30.1-48.3c5.1-7,19.2-9,36.3-9.5C216.1,256.2,217,256.2,217.9,256.2z"/>
  <path class="st0" d="M223.9,256c0.1,0,0.1,0,0.2,0c0,0,0.1,0,0.1,0.1l0,0"/>
  <path class="st3" d="M286.9,251.1c-13.3-0.5-26.8-1.3-37.9-1.3c-2.4,0-1.3-11.7-0.9-14c0.9-5.7,3.2-12.6,6.6-20l11-20.2
    c20.4-25.9,48.5-48.6,65.7-38.8c6.5,3.7-0.3,58-20,89.9c-1.5,2.4-5.1,4-10,4.9L286.9,251.1z"/>
  <path class="st3" d="M241,256h-0.2C240.9,256,240.9,256,241,256z"/>
  <path class="st0" d="M248,256L248,256C247.9,256,247.9,256,248,256"/>
  <path class="st3" d="M264.2,314.1c-3.3-1-6.1-2.5-8.5-4.6c-1.4-4.2-2.7-8.8-3.9-14c-1.7-7.3-3.2-15.8-4.7-25.4
    c-0.3-2.2-1.4-13.2,0.7-14c2.4,0,4.8,0,7.1,0l0.1-0.1h0.2c18.3,1,33.7,2.3,39.1,9.7C308.4,285.1,271.4,316.2,264.2,314.1z"/>
</g>
<g class="st4">
  <path class="st3" d="M222.9,249.8c-11.1,0.1-24.5,0.8-37.8,1.3c-0.8-0.5-1.4-1-1.8-1.7c-13.9-22.5-18.7-60.8-14.1-63.4
    c12.5-7.2,33.3,10.1,47.7,29.2c3.6,7.7,6,14.8,6.9,20.6C224.2,238.1,225.2,249.8,222.9,249.8z"/>
  <path class="st3" d="M224.8,270.1c-1.5,9.6-3,18.1-4.7,25.5c-1.1,0.6-2.2,1.1-3.5,1.5c-5.1,1.5-31.2-20.5-21.2-34.1
    c3.8-5.3,14.8-6.9,27.7-6.9h0.8C226.2,256,225.2,267.8,224.8,270.1z"/>
  <path class="st3" d="M233.4,263.1c-0.1,0.8-0.2,1.5-0.4,2.2c0.3-2.4,0.7-8.4-0.6-9.4h0.5C234.2,256,233.6,262,233.4,263.1z"/>
  <path class="st3" d="M288.7,249.5c-0.4,0.7-1,1.2-1.8,1.7c-13.3-0.5-26.8-1.3-37.9-1.3c-2.4,0-1.3-11.7-1-14
    c0.9-5.7,3.2-12.6,6.6-20c14.5-19.2,35.6-37,48.2-29.8C307.5,188.7,302.7,227,288.7,249.5z"/>
  <path class="st3" d="M255.5,297c-1.4-0.4-2.6-0.9-3.7-1.6c-1.7-7.3-3.2-15.8-4.7-25.4c-0.3-2.3-1.4-14.1,1-14.1h1
    c13,0,23.9,1.6,27.8,6.9C286.7,276.5,260.5,298.5,255.5,297z"/>
</g>
<g>
  <path class="st5" d="M241.3,264.9c0,25.5-2.4,29.9-5.3,29.9s-5.3-4.4-5.3-29.9s2.4-32.9,5.3-32.9S241.3,239.4,241.3,264.9z"/>
  <path class="st5" d="M241.3,230.7c0,4.2-2.4,5.6-5.3,5.6s-5.3-1.4-5.3-5.6s2.4-7.7,5.3-7.7S241.3,226.5,241.3,230.7z"/>
</g>
<g>
  <g>
    <path class="st5" d="M237,227c1.8-19.6,9.8-39.4,28.5-48.3c0.4-0.2,0.1-0.9-0.4-0.6c-18.9,9.1-27,29.1-28.9,49
      C236.2,227.5,237,227.5,237,227L237,227z"/>
  </g>
</g>
<g>
  <g>
    <path class="st5" d="M235.7,227c-1.9-19.8-9.9-39.9-28.9-49c-0.4-0.2-0.8,0.4-0.4,0.6c18.7,8.9,26.7,28.8,28.5,48.3
      C235,227.5,235.8,227.5,235.7,227L235.7,227z"/>
  </g>
</g>
</svg>
