<?xml version="1.0" encoding="utf-8"?>
<!-- Generator: Adobe Illustrator 19.2.0, SVG Export Plug-In . SVG Version: 6.00 Build 0)  -->
<svg version="1.1" id="Layer_1" xmlns="http://www.w3.org/2000/svg" xmlns:xlink="http://www.w3.org/1999/xlink" x="0px" y="0px"
  viewBox="0 0 860.2 103.3" style="enable-background:new 0 0 860.2 103.3;" xml:space="preserve">
<style type="text/css">
  .st0{fill:#FF6B00;}
</style>
<g id="XMLID_1_">
  <g id="XMLID_2_">
    <polyline id="XMLID_3_" class="st0" points="138.3,54.7 94.4,10.8 71.2,34 48,10.8 4,54.7 48,98.7 71.2,75.5 94.4,98.7
      138.3,54.7 		"/>
    <polyline id="XMLID_4_" class="st0" points="139,10.7 124,25.7 146,47.7 153,54.7 146,61.7 124,83.7 139,98.6 182.9,54.7
      139,10.7 		"/>
  </g>
  <g id="XMLID_5_">
    <path id="XMLID_6_" d="M294.3,13.3H311l-30.8,83.2h-8.7l-18.2-55.9l-18.1,55.9h-8.7l-31-83.2h16.6l18.6,54.1l17.3-54.1h10.3
      l17.3,54.1L294.3,13.3 M395.9,13.3v83.2h-14.3v-13c-2.7,4-5.6,7-9,9.2c-6.4,4-13.9,6-22.3,6c-12.1,0-22.2-4.2-30.3-12.5
      c-8.1-8.3-12.2-18.6-12.2-31c0-12.6,4.1-23.2,12.4-31.5c8.3-8.4,18.6-12.6,31-12.6c6.3,0,12.3,1.3,17.8,4
      c5.5,2.6,9.7,6.1,12.5,10.4V13.3H395.9z M351.8,84.4c7.9,0,14.6-2.9,20.2-8.6c5.6-5.7,8.4-12.6,8.4-20.7c0-8.3-2.8-15.4-8.3-21.2
      c-5.6-5.8-12.3-8.7-20.3-8.7c-7.9,0-14.6,2.9-20.1,8.6c-5.5,5.8-8.3,12.8-8.3,21.1c0,8.1,2.8,15,8.4,20.8
      C337.3,81.5,344,84.4,351.8,84.4z M479.4,45.4v51.1H464V51.4c0-8-1.2-13.8-3.5-17.4c-3.6-5.6-9.4-8.5-17.4-8.5
      c-6.8,0-12.1,2.3-15.9,6.9c-3.8,4.6-5.7,10.9-5.7,19v45.2h-15.8V13.3h14.5v8.8c5.5-7.3,13.7-11,24.6-11c10.3,0,18.7,3.2,25,9.5
      C476.2,27,479.4,35.2,479.4,45.4z M490.9,13.3h27.7c26.2,0,44.2,18,44.2,41.4v0.2c0,23.4-18.1,41.6-44.2,41.6h-27.7V13.3z
      M518.6,90.8c23.2,0,37.8-15.8,37.8-35.7v-0.2c0-19.7-14.6-35.9-37.8-35.9h-21.5v71.8H518.6z M572.8,13.3h6.2v83.2h-6.2V13.3z
      M592.1,84.4l4-4.6c9.2,8.4,17.6,12.4,29.9,12.4c12.5,0,21-7,21-16.5v-0.2c0-8.8-4.6-13.9-23.5-17.7c-20-4-28.1-10.8-28.1-23.4V34
      c0-12.4,11.3-21.9,26.8-21.9c12.1,0,20.1,3.3,28.5,10.1l-3.9,4.9c-7.9-6.8-15.7-9.4-24.9-9.4c-12.3,0-20.3,7-20.3,15.7v0.2
      c0,8.8,4.5,14.2,24.3,18.2c19.3,3.9,27.3,10.8,27.3,22.9V75c0,13.4-11.5,22.7-27.6,22.7C612.3,97.7,602.1,93.3,592.1,84.4z
      M662.7,55.2v-0.2c0-23.5,17.6-43,41.6-43c14.9,0,23.8,5.5,32.3,13.3l-4.4,4.5c-7.3-7-15.6-12.3-28.1-12.3
      c-20,0-35.1,16.3-35.1,37.2v0.2c0,21,15.3,37.5,35.2,37.5c12,0,20.2-4.6,28.7-13l4.2,4.1c-8.8,8.7-18.3,14.5-33.1,14.5
      C680.3,98,662.7,79.1,662.7,55.2z M743.3,55.2v-0.2c0-22.7,16.8-43,42-43c25.2,0,41.7,20.1,41.7,42.8c0.1,0.1,0.1,0.1,0,0.2
      c0,22.7-16.8,43.1-42,43.1C759.9,98,743.3,77.9,743.3,55.2z M820.6,55.2v-0.2c0-20.6-15-37.5-35.5-37.5
      c-20.6,0-35.3,16.7-35.3,37.2v0.2c0,20.6,15,37.5,35.6,37.5C805.9,92.4,820.6,75.7,820.6,55.2z"/>
    <path id="XMLID_18_" d="M828.3,19.4L828.3,19.4c0-7.9,6.3-14.4,14.4-14.4S857,11.4,857,19.2v0.1c0,7.8-6.3,14.3-14.4,14.3
      S828.3,27.2,828.3,19.4 M855.8,19.3L855.8,19.3c0-7.3-5.6-13.2-13.1-13.2c-7.5,0-13.2,6-13.2,13.2v0.1c0,7.2,5.6,13.1,13.1,13.1
      C850.1,32.5,855.8,26.5,855.8,19.3z M837.2,11.7h6.5c1.8,0,3.3,0.6,4.2,1.5c0.6,0.6,1.1,1.6,1.1,2.7v0.1c0,2.3-1.6,3.7-4,4.2
      l4.8,6.1h-2.2l-4.6-5.8h-4.2v5.8h-1.7V11.7z M843.4,18.7c2.2,0,3.8-1,3.8-2.8v-0.1c0-1.6-1.4-2.6-3.6-2.6h-4.7v5.5H843.4z"/>
  </g>
</g>
</svg>
