<?xml version="1.0" encoding="UTF-8" standalone="no"?>
<svg width="679px" height="151px" viewBox="0 0 679 151" version="1.1" xmlns="http://www.w3.org/2000/svg" xmlns:xlink="http://www.w3.org/1999/xlink">
    <!-- Generator: Sketch 3.8.3 (29802) - http://www.bohemiancoding.com/sketch -->
    <title>amazon-alexa-logo</title>
    <desc>Created with Sketch.</desc>
    <defs>
        <linearGradient x1="49.9725296%" y1="0.0117821782%" x2="49.9725296%" y2="100.010396%" id="linearGradient-1">
            <stop stop-color="#00BFD9" offset="0%"></stop>
            <stop stop-color="#00BAD5" offset="18.82%"></stop>
            <stop stop-color="#00AFCE" offset="38.32%"></stop>
            <stop stop-color="#00A0C3" offset="58.14%"></stop>
            <stop stop-color="#008CB5" offset="78.18%"></stop>
            <stop stop-color="#0075A5" offset="98.2%"></stop>
            <stop stop-color="#0073A4" offset="100%"></stop>
        </linearGradient>
    </defs>
    <g id="Page-1" stroke="none" stroke-width="1" fill="none" fill-rule="evenodd">
        <g id="amazon-alexa-logo">
            <g id="Page-1">
                <g>
                    <g id="Artboard-1">
                        <g id="amazon-alexa-logo">
                            <path d="M245,124.9 C222.1,141.8 188.8,150.8 160.2,150.8 C120.1,150.8 84,136 56.6,111.3 C54.4,109.4 56.4,106.7 58.9,108.2 C88.4,125.4 124.9,135.7 162.5,135.7 C187.9,135.7 215.9,130.4 241.6,119.5 C245.5,117.9 248.8,122.1 245,124.9" id="Shape" fill="#000000"></path>
                            <path d="M254.5,114 C251.6,110.3 235.1,112.2 227.7,113.1 C225.5,113.4 225.1,111.4 227.1,110 C240.2,100.8 261.7,103.4 264.2,106.5 C266.7,109.6 263.5,131.2 251.2,141.5 C249.3,143.1 247.5,142.2 248.3,140.1 C251.3,133.2 257.4,117.8 254.5,114" id="Shape" fill="#000000"></path>
                            <path d="M228.2,44.9 L228.2,35.9 C228.2,34.5 229.2,33.6 230.5,33.6 L270.6,33.6 C271.9,33.6 272.9,34.5 272.9,35.9 L272.9,43.6 C272.9,44.9 271.8,46.6 269.9,49.2 L249.1,78.9 C256.8,78.7 265,79.9 272,83.8 C273.6,84.7 274,86 274.1,87.3 L274.1,96.8 C274.1,98.1 272.7,99.6 271.1,98.9 C258.7,92.4 242.3,91.7 228.7,99 C227.3,99.8 225.8,98.2 225.8,96.9 L225.8,87.8 C225.8,86.3 225.8,83.9 227.3,81.6 L251.4,47 L230.4,47 C229.3,47.1 228.3,46.2 228.2,44.9" id="Shape" fill="#000000"></path>
                            <path d="M81.8,100.8 L69.6,100.8 C68.4,100.7 67.5,99.9 67.4,98.7 L67.4,36 C67.4,34.7 68.5,33.7 69.8,33.7 L81.2,33.7 C82.4,33.8 83.4,34.7 83.4,35.8 L83.4,44 L83.6,44 C86.6,36.1 92.2,32.4 99.7,32.4 C107.3,32.4 112.1,36.1 115.6,44 C118.6,36.1 125.3,32.4 132.5,32.4 C137.6,32.4 143.2,34.5 146.6,39.3 C150.5,44.6 149.7,52.2 149.7,58.9 L149.7,98.5 C149.7,99.7 148.6,100.7 147.3,100.7 L135,100.7 C133.8,100.6 132.8,99.7 132.8,98.5 L132.8,65.3 C132.8,62.7 133,56.1 132.5,53.6 C131.6,49.4 128.8,48.2 125.3,48.2 C122.3,48.2 119.3,50.2 118,53.4 C116.7,56.6 116.9,61.8 116.9,65.4 L116.9,98.6 C116.9,99.8 115.8,100.8 114.5,100.8 L102.3,100.8 C101.1,100.7 100.1,99.8 100.1,98.6 L100.1,65.4 C100.1,58.4 101.2,48.1 92.6,48.1 C83.8,48.1 84.2,58.1 84.2,65.4 L84.2,98.6 C84.2,99.8 83.1,100.8 81.8,100.8" id="Shape" fill="#000000"></path>
                            <path d="M307.5,32.5 C325.6,32.5 335.4,48.1 335.4,67.9 C335.4,87 324.6,102.2 307.5,102.2 C289.7,102.2 280,86.6 280,67.2 C280.1,47.7 289.9,32.5 307.5,32.5 M307.7,45.3 C298.7,45.3 298.1,57.6 298.1,65.2 C298.1,72.9 298,89.2 307.6,89.2 C317.1,89.2 317.5,76 317.5,68 C317.5,62.7 317.3,56.4 315.7,51.4 C314.3,47 311.5,45.3 307.7,45.3" id="Shape" fill="#000000"></path>
                            <path d="M359,100.8 L346.8,100.8 C345.6,100.7 344.6,99.8 344.6,98.6 L344.6,35.9 C344.7,34.8 345.7,33.9 346.9,33.9 L358.2,33.9 C359.3,34 360.2,34.7 360.4,35.7 L360.4,45.3 L360.6,45.3 C364,36.7 368.8,32.6 377.2,32.6 C382.7,32.6 388,34.6 391.4,40 C394.6,45 394.6,53.5 394.6,59.5 L394.6,98.9 C394.5,100 393.5,100.9 392.3,100.9 L380.1,100.9 C379,100.8 378.1,100 377.9,98.9 L377.9,64.9 C377.9,58 378.7,48 370.2,48 C367.2,48 364.5,50 363.1,53 C361.4,56.8 361.2,60.6 361.2,64.9 L361.2,98.7 C361.3,99.8 360.3,100.8 359,100.8" id="Shape" fill="#000000"></path>
                            <path d="M196.2,70.9 C196.2,75.7 196.3,79.6 193.9,83.8 C192,87.2 188.9,89.4 185.4,89.4 C180.7,89.4 178,85.8 178,80.5 C178,70.1 187.3,68.2 196.2,68.2 L196.2,70.9 L196.2,70.9 L196.2,70.9 Z M208.6,100.7 C207.8,101.4 206.6,101.5 205.7,101 C201.6,97.6 200.9,96.1 198.7,92.9 C192,99.7 187.2,101.8 178.6,101.8 C168.3,101.8 160.3,95.4 160.3,82.8 C160.3,72.9 165.7,66.1 173.3,62.8 C179.9,59.9 189.2,59.4 196.3,58.6 L196.3,57 C196.3,54.1 196.5,50.6 194.8,48.2 C193.3,45.9 190.4,45 187.9,45 C183.2,45 179.1,47.4 178.1,52.3 C177.9,53.4 177.1,54.5 176,54.5 L164.2,53.2 C163.2,53 162.1,52.2 162.4,50.7 C165.1,36.3 178.1,32 189.7,32 C195.6,32 203.4,33.6 208.1,38.1 C214,43.7 213.5,51.1 213.5,59.1 L213.5,78.1 C213.5,83.8 215.9,86.3 218.1,89.4 C218.9,90.5 219.1,91.8 218.1,92.6 C215.5,94.7 211,98.5 208.6,100.7 L208.6,100.7 L208.6,100.7 L208.6,100.7 Z" id="Shape" fill="#000000"></path>
                            <path d="M36.1,70.9 C36.1,75.7 36.2,79.6 33.8,83.8 C31.9,87.2 28.8,89.4 25.3,89.4 C20.6,89.4 17.9,85.8 17.9,80.5 C17.9,70.1 27.2,68.2 36.1,68.2 L36.1,70.9 L36.1,70.9 L36.1,70.9 Z M48.4,100.7 C47.6,101.4 46.4,101.5 45.5,101 C41.4,97.6 40.7,96.1 38.5,92.9 C31.8,99.7 27,101.8 18.4,101.8 C8.1,101.8 0.1,95.4 0.1,82.8 C0.1,72.9 5.5,66.1 13.1,62.8 C19.7,59.9 29,59.4 36.1,58.6 L36.1,57 C36.1,54.1 36.3,50.6 34.6,48.2 C33.1,45.9 30.3,45 27.7,45 C23,45 18.9,47.4 17.9,52.3 C17.7,53.4 16.9,54.5 15.8,54.5 L4,53.2 C3,53 1.9,52.2 2.2,50.7 C4.9,36.3 17.9,32 29.5,32 C35.4,32 43.2,33.6 47.9,38.1 C53.8,43.7 53.3,51.1 53.3,59.1 L53.3,78.1 C53.3,83.8 55.7,86.3 57.9,89.4 C58.7,90.5 58.8,91.8 57.9,92.6 C55.3,94.7 50.9,98.5 48.4,100.7 L48.4,100.7 L48.4,100.7 L48.4,100.7 Z" id="Shape" fill="#000000"></path>
                            <path d="M445.6,68.4 C440.3,68.5 436.7,69.4 433.9,70.8 C430.5,72.8 428.7,76.1 428.7,80.2 C428.7,87.1 433.2,91.6 440.4,91.6 C448,91.6 453.6,87 456.4,84 L456.4,68 L445.6,68.4 L445.6,68.4 L445.6,68.4 Z M457.3,93.1 C452.2,97.9 445.8,101.7 437.5,101.7 C425.3,101.7 416.1,93.7 416.1,80.9 C416.1,72 420.6,66.1 427.4,62.9 C432,60.6 437.4,59.8 444.1,59.5 L456.5,59.1 L456.5,55.6 C456.5,46.2 450.7,42.1 442.7,42.1 C435.1,42.1 429.3,44.5 424.6,47.3 L420.2,38.7 C427.9,34.1 436.4,32.1 444.3,32.1 C459.4,32.1 468.9,39.3 468.9,55.3 L468.9,79.5 C468.9,90.9 469.3,96.9 470.2,100.3 L459.5,100.3 L457.3,93.1 L457.3,93.1 L457.3,93.1 Z M479.6,0.7 L492,0.7 L492,83.7 C492,88.8 493.5,90.3 497.1,90.3 C498.1,90.3 500.1,89.9 501.2,89.5 L503.7,99.2 C500.6,100.5 496.7,101.2 493.4,101.2 C484.1,101.2 479.6,96.1 479.6,87.3 L479.6,0.7 L479.6,0.7 L479.6,0.7 Z M547.3,60.5 C547,51.2 542.5,41.9 532.5,41.9 C522.9,41.9 517.2,50.3 517,60.5 L547.3,60.5 L547.3,60.5 L547.3,60.5 Z M504.4,66.5 C504.4,46.2 515.5,32 532.5,32 C549.9,32 560.1,45.4 560.1,66.6 L560.1,69.7 L517.1,69.7 C517.4,82.2 525,91.5 538.2,91.5 C544.5,91.5 550,89.5 554.7,87 L558.6,95.6 C552.4,99.5 544.3,101.6 536.7,101.6 C514.5,101.7 504.4,85.5 504.4,66.5 L504.4,66.5 L504.4,66.5 Z M585.6,67 L562.2,33.8 L575.8,33.8 L592.7,58.3 L610,33.8 L623.2,33.8 L599.4,66.7 L623,100.3 L609.6,100.3 L592.2,75.4 L574.6,100.3 L561.2,100.3 L585.6,67 L585.6,67 L585.6,67 Z M653.6,68.4 C648.3,68.5 644.7,69.4 641.9,70.8 C638.5,72.8 636.7,76.1 636.7,80.2 C636.7,87.1 641.2,91.6 648.4,91.6 C656,91.6 661.6,87 664.4,84 L664.4,68 L653.6,68.4 L653.6,68.4 L653.6,68.4 Z M665.3,93.1 C660.2,97.9 653.8,101.7 645.5,101.7 C633.3,101.7 624.1,93.7 624.1,80.9 C624.1,72 628.6,66.1 635.4,62.9 C640,60.6 645.4,59.8 652.1,59.5 L664.5,59.1 L664.5,55.6 C664.5,46.2 658.7,42.1 650.7,42.1 C643.1,42.1 637.3,44.5 632.6,47.3 L628.2,38.7 C635.9,34.1 644.4,32.1 652.3,32.1 C667.4,32.1 676.9,39.3 676.9,55.3 L676.9,79.5 C676.9,90.9 677.3,96.9 678.2,100.3 L667.5,100.3 L665.3,93.1 L665.3,93.1 L665.3,93.1 Z" id="Shape" fill="url(#linearGradient-1)"></path>
                        </g>
                    </g>
                </g>
            </g>
        </g>
    </g>
</svg>
