<svg xmlns="http://www.w3.org/2000/svg" width="535.466" height="120" viewBox="0 0 535.466 120"><title>logo</title><g id="Layer_3" data-name="Layer 3"><path d="M132.985,87.344a6.157,6.157,0,0,1-1.8,4.354l-27.576,27.576a2.463,2.463,0,0,1-4.2-1.741V55.742l33.2-33.015h.383Z" style="fill:#e34b5f"/><path d="M110.979.721a2.463,2.463,0,0,0-3.483,0l-41,41h-.569V88l.569,1.216L99.4,56.311l33.584-33.584Z" style="fill:#e7ce9c"/><path d="M0,87.344A6.157,6.157,0,0,0,1.8,91.7l27.576,27.576a2.463,2.463,0,0,0,4.2-1.741V55.742L.383,22.727H0Z" style="fill:#1e7889"/><path d="M25.489.721a2.463,2.463,0,0,0-3.483,0L0,22.727,33.584,56.311,66.492,89.22V41.725Z" style="fill:#97baa6"/><path d="M174.256,88.2V26.547h16.417v8.266c3.789-6.314,9.3-9.414,16.762-9.414s13.088,3.215,17.106,9.873C230.97,28.5,235.907,25.4,243.6,25.4c13.892,0,21.7,7.807,21.7,22.158V88.2h-17.68V54.79c0-8.611-1.837-12.514-8.611-12.514-6.888,0-10.562,4.248-10.562,12.514V88.2h-17.8V54.79c0-8.611-1.837-12.514-8.611-12.514-6.889,0-10.562,4.248-10.562,12.514V88.2Z" style="fill:#14233c"/><path d="M284.914,34.584A32.545,32.545,0,0,1,340.6,56.971c0,9.3-3.1,16.991-9.3,23.191a31.961,31.961,0,0,1-23.421,9.644c-9.414,0-16.991-3.215-23.306-9.873A32.218,32.218,0,0,1,275.5,57.2,31.6,31.6,0,0,1,284.914,34.584Zm23.076,38c8.037,0,14.581-6.774,14.581-15.155,0-8.5-6.544-15.269-14.581-15.269s-14.58,6.774-14.58,15.269C293.41,65.812,300.069,72.585,307.99,72.585Z" style="fill:#14233c"/><path d="M350.8,88.2V26.547h17.221l-.23,8.266c3.789-6.2,9.529-9.414,17.68-9.414,12.744,0,21.01,8.036,21.01,22.158V88.2H388.34V54.79c0-8.611-1.837-12.514-8.84-12.514-7.118,0-10.907,4.248-10.907,12.514V88.2Z" style="fill:#14233c"/><path d="M479.784,34.584a32.545,32.545,0,0,1,55.682,22.388c0,9.3-3.1,16.991-9.3,23.191a31.962,31.962,0,0,1-23.421,9.644c-9.414,0-16.992-3.215-23.306-9.873A32.219,32.219,0,0,1,470.37,57.2,31.6,31.6,0,0,1,479.784,34.584Zm23.076,38c8.036,0,14.581-6.774,14.581-15.155,0-8.5-6.544-15.269-14.581-15.269S488.28,48.935,488.28,57.431C488.28,65.812,494.939,72.585,502.861,72.585Z" style="fill:#14233c"/><path d="M417.911,88.2V75.34l25.372-32.835H417.911V26.548h45.808v14.58L441.332,72.241h22.847V88.2Z" style="fill:#14233c"/></g></svg>
